<svg width="430" height="488" viewBox="0 0 430 488" fill="none" xmlns="http://www.w3.org/2000/svg">
  <mask id="mask0_0_1" style="mask-type:alpha" maskUnits="userSpaceOnUse" x="-29" y="22" width="488" height="488">
  <path d="M457.995 265.855C457.995 400.255 349.042 509.207 214.643 509.207C80.2429 509.207 -28.7096 400.255 -28.7096 265.855C-28.7096 131.455 80.2429 22.5028 214.643 22.5028C349.042 22.5028 457.995 131.455 457.995 265.855Z" stroke="#8107E3" stroke-width="0.580854"/>
  <circle cx="214.645" cy="265.855" r="202.745" stroke="#8107E3" stroke-width="0.580854"/>
  <circle cx="214.643" cy="265.855" r="162.138" stroke="#8107E3" stroke-width="0.580854"/>
  <circle cx="214.646" cy="265.855" r="121.531" stroke="#8107E3" stroke-width="0.580854"/>
  </mask>
  <g mask="url(#mask0_0_1)">
  <rect x="-32.2461" y="22.2124" width="493.782" height="264.352" fill="url(#paint0_linear_0_1)"/>
  </g>
  <circle cx="22.3681" cy="115.406" r="6.70017" fill="#1E1D1F"/>
  <circle cx="133.228" cy="81.2958" r="6.70017" fill="#1E1D1F"/>
  <circle cx="193.527" cy="64.0377" r="8.52749" fill="#1E1D1F"/>
  <circle cx="254.442" cy="69.7227" r="8.52749" fill="#1E1D1F"/>
  <circle cx="267.43" cy="32.3642" r="8.52749" fill="#1E1D1F"/>
  <circle cx="369.766" cy="79.4684" r="8.52749" fill="#1E1D1F"/>
  <mask id="mask1_0_1" style="mask-type:alpha" maskUnits="userSpaceOnUse" x="362" y="68" width="17" height="18">
  <rect width="16.2428" height="16.2428" transform="matrix(-1 0 0 1 378.289 68.9106)" fill="url(#paint1_linear_0_1)" fill-opacity="0.5"/>
  </mask>
  <g mask="url(#mask1_0_1)">
  <path d="M367.466 81.7697L374.91 77.0322L367.466 72.2947V81.7697ZM368.819 79.2994V74.7649L372.372 77.0322L368.819 79.2994Z" fill="url(#paint2_linear_0_1)" fill-opacity="0.5"/>
  </g>
  <mask id="mask2_0_1" style="mask-type:alpha" maskUnits="userSpaceOnUse" x="260" y="21" width="17" height="17">
  <rect x="260.121" y="21.4003" width="16.2428" height="16.2428" fill="url(#paint3_linear_0_1)" fill-opacity="0.5"/>
  </mask>
  <g mask="url(#mask2_0_1)">
  <path d="M268.914 34.2593V24.7843H272.975V34.2593H268.914ZM263.5 34.2593V24.7843H267.561V34.2593H263.5ZM270.268 32.9057H271.621V26.1379H270.268V32.9057ZM264.854 32.9057H266.207V26.1379H264.854V32.9057Z" fill="url(#paint4_linear_0_1)" fill-opacity="0.5"/>
  </g>
  <mask id="mask3_0_1" style="mask-type:alpha" maskUnits="userSpaceOnUse" x="246" y="59" width="17" height="17">
  <rect x="246.316" y="59.1648" width="16.2428" height="16.2428" fill="url(#paint5_linear_0_1)" fill-opacity="0.5"/>
  </mask>
  <g mask="url(#mask3_0_1)">
  <path d="M254.436 59.8414L260.561 63.4961C260.764 63.6201 260.922 63.7893 261.034 64.0037C261.147 64.218 261.204 64.4436 261.204 64.6804V72.0236C261.204 72.3958 261.071 72.7144 260.806 72.9795C260.541 73.2446 260.222 73.3771 259.85 73.3771H249.022C248.649 73.3771 248.331 73.2446 248.066 72.9795C247.801 72.7144 247.668 72.3958 247.668 72.0236V64.6804C247.668 64.4436 247.724 64.218 247.837 64.0037C247.95 63.7893 248.108 63.6201 248.311 63.4961L254.436 59.8414ZM254.436 67.726L259.715 64.5789L254.436 61.4319L249.157 64.5789L254.436 67.726ZM254.436 69.3164L249.022 66.0679V72.0236H259.85V66.0679L254.436 69.3164Z" fill="url(#paint6_linear_0_1)" fill-opacity="0.5"/>
  </g>
  <mask id="mask4_0_1" style="mask-type:alpha" maskUnits="userSpaceOnUse" x="15" y="107" width="17" height="17">
  <rect x="15.668" y="107.081" width="16.2428" height="16.2428" fill="url(#paint7_linear_0_1)" fill-opacity="0.5"/>
  </mask>
  <g mask="url(#mask4_0_1)">
  <path d="M29.1707 121.294C27.7608 121.294 26.3677 120.986 24.9916 120.372C23.6154 119.757 22.3634 118.885 21.2354 117.758C20.1074 116.63 19.2361 115.377 18.6213 114.001C18.0066 112.625 17.6992 111.232 17.6992 109.822C17.6992 109.619 17.7669 109.45 17.9023 109.315C18.0376 109.179 18.2068 109.112 18.4098 109.112H21.1508C21.3087 109.112 21.4497 109.165 21.5738 109.272C21.6979 109.379 21.7712 109.506 21.7938 109.653L22.2337 112.022C22.2562 112.202 22.2506 112.355 22.2168 112.479C22.1829 112.603 22.1209 112.71 22.0306 112.8L20.3894 114.458C20.615 114.876 20.8829 115.279 21.1931 115.668C21.5033 116.057 21.8445 116.432 22.2168 116.793C22.5664 117.143 22.933 117.467 23.3165 117.766C23.7 118.065 24.1061 118.338 24.5347 118.587L26.1252 116.996C26.2267 116.895 26.3592 116.818 26.5228 116.768C26.6864 116.717 26.8471 116.703 27.005 116.725L29.3399 117.199C29.4978 117.244 29.6276 117.326 29.7291 117.444C29.8306 117.563 29.8813 117.695 29.8813 117.842V120.583C29.8813 120.786 29.8137 120.955 29.6783 121.091C29.543 121.226 29.3738 121.294 29.1707 121.294ZM19.7465 113.172L20.8632 112.056L20.5756 110.465H19.0697C19.1261 110.928 19.2051 111.384 19.3066 111.836C19.4081 112.287 19.5547 112.732 19.7465 113.172ZM25.8037 119.23C26.2436 119.421 26.692 119.574 27.1488 119.686C27.6057 119.799 28.0653 119.872 28.5278 119.906V118.417L26.9373 118.096L25.8037 119.23Z" fill="url(#paint8_linear_0_1)" fill-opacity="0.5"/>
  </g>
  <mask id="mask5_0_1" style="mask-type:alpha" maskUnits="userSpaceOnUse" x="184" y="55" width="18" height="18">
  <rect x="184.996" y="55.9163" width="16.2428" height="16.2428" fill="url(#paint9_linear_0_1)" fill-opacity="0.5"/>
  </mask>
  <g mask="url(#mask5_0_1)">
  <path d="M188.953 67.4894C189.529 67.0494 190.171 66.7026 190.882 66.4488C191.593 66.195 192.337 66.0681 193.116 66.0681C193.894 66.0681 194.638 66.195 195.349 66.4488C196.06 66.7026 196.702 67.0494 197.278 67.4894C197.673 67.0269 197.98 66.5024 198.2 65.9158C198.42 65.3293 198.53 64.7033 198.53 64.0377C198.53 62.5375 198.002 61.2601 196.948 60.2055C195.893 59.1508 194.616 58.6235 193.116 58.6235C191.615 58.6235 190.338 59.1508 189.283 60.2055C188.229 61.2601 187.701 62.5375 187.701 64.0377C187.701 64.7033 187.811 65.3293 188.031 65.9158C188.251 66.5024 188.558 67.0269 188.953 67.4894ZM193.116 64.7145C192.45 64.7145 191.889 64.4861 191.432 64.0293C190.975 63.5725 190.747 63.0113 190.747 62.3458C190.747 61.6803 190.975 61.1191 191.432 60.6623C191.889 60.2055 192.45 59.977 193.116 59.977C193.781 59.977 194.342 60.2055 194.799 60.6623C195.256 61.1191 195.484 61.6803 195.484 62.3458C195.484 63.0113 195.256 63.5725 194.799 64.0293C194.342 64.4861 193.781 64.7145 193.116 64.7145ZM193.116 70.8056C192.179 70.8056 191.299 70.6279 190.476 70.2726C189.653 69.9173 188.936 69.4351 188.327 68.826C187.718 68.2169 187.236 67.5006 186.881 66.6772C186.525 65.8538 186.348 64.974 186.348 64.0377C186.348 63.1015 186.525 62.2217 186.881 61.3983C187.236 60.5749 187.718 59.8586 188.327 59.2495C188.936 58.6404 189.653 58.1582 190.476 57.8029C191.299 57.4476 192.179 57.2699 193.116 57.2699C194.052 57.2699 194.932 57.4476 195.755 57.8029C196.578 58.1582 197.295 58.6404 197.904 59.2495C198.513 59.8586 198.995 60.5749 199.35 61.3983C199.706 62.2217 199.883 63.1015 199.883 64.0377C199.883 64.974 199.706 65.8538 199.35 66.6772C198.995 67.5006 198.513 68.2169 197.904 68.826C197.295 69.4351 196.578 69.9173 195.755 70.2726C194.932 70.6279 194.052 70.8056 193.116 70.8056ZM193.116 69.452C193.713 69.452 194.277 69.3646 194.807 69.1898C195.338 69.0149 195.823 68.764 196.263 68.4369C195.823 68.1097 195.338 67.8588 194.807 67.6839C194.277 67.5091 193.713 67.4217 193.116 67.4217C192.518 67.4217 191.954 67.5091 191.424 67.6839C190.893 67.8588 190.408 68.1097 189.968 68.4369C190.408 68.764 190.893 69.0149 191.424 69.1898C191.954 69.3646 192.518 69.452 193.116 69.452ZM193.116 63.361C193.409 63.361 193.651 63.2651 193.843 63.0733C194.035 62.8816 194.131 62.6391 194.131 62.3458C194.131 62.0525 194.035 61.81 193.843 61.6182C193.651 61.4265 193.409 61.3306 193.116 61.3306C192.822 61.3306 192.58 61.4265 192.388 61.6182C192.196 61.81 192.1 62.0525 192.1 62.3458C192.1 62.6391 192.196 62.8816 192.388 63.0733C192.58 63.2651 192.822 63.361 193.116 63.361Z" fill="url(#paint10_linear_0_1)" fill-opacity="0.5"/>
  </g>
  <mask id="mask6_0_1" style="mask-type:alpha" maskUnits="userSpaceOnUse" x="123" y="67" width="24" height="24">
  <rect x="123.684" y="78.7716" width="16.2428" height="16.2428" transform="rotate(-45 123.684 78.7716)" fill="url(#paint11_linear_0_1)" fill-opacity="0.5"/>
  </mask>
  <g mask="url(#mask6_0_1)">
  <path d="M134.696 86.907L127.039 79.25L139.96 73.9858L134.696 86.907ZM134.217 84.5142L137.496 76.4504L129.432 79.7286L131.107 81.4035L134.696 79.25L132.542 82.8392L134.217 84.5142Z" fill="url(#paint12_linear_0_1)" fill-opacity="0.5"/>
  </g>
  <g filter="url(#filter0_d_0_1)">
  <rect x="55.0586" y="57.5406" width="52.8773" height="18.5813" rx="4.87285" fill="url(#paint13_linear_0_1)"/>
  <rect x="55.2705" y="57.7525" width="52.4536" height="18.1575" rx="4.66098" stroke="url(#paint14_linear_0_1)" stroke-width="0.423739"/>
  <mask id="mask7_0_1" style="mask-type:alpha" maskUnits="userSpaceOnUse" x="67" y="62" width="9" height="9">
  <rect x="67.6211" y="62.6841" width="8.29448" height="8.29448" fill="#D9D9D9"/>
  </mask>
  <g mask="url(#mask7_0_1)">
  <path d="M67.9648 70.633L68.6388 68.3175C68.5293 68.0813 68.4472 67.8394 68.3925 67.5917C68.3378 67.344 68.3104 67.0906 68.3104 66.8314C68.3104 66.3533 68.4012 65.904 68.5826 65.4835C68.7641 65.0631 69.0103 64.6973 69.3213 64.3863C69.6324 64.0752 69.9981 63.829 70.4186 63.6475C70.8391 63.4661 71.2884 63.3754 71.7665 63.3754C72.2446 63.3754 72.6938 63.4661 73.1143 63.6475C73.5348 63.829 73.9006 64.0752 74.2116 64.3863C74.5227 64.6973 74.7689 65.0631 74.9503 65.4835C75.1318 65.904 75.2225 66.3533 75.2225 66.8314C75.2225 67.3095 75.1318 67.7588 74.9503 68.1793C74.7689 68.5997 74.5227 68.9655 74.2116 69.2765C73.9006 69.5876 73.5348 69.8338 73.1143 70.0153C72.6938 70.1967 72.2446 70.2874 71.7665 70.2874C71.5073 70.2874 71.2538 70.2601 71.0062 70.2054C70.7585 70.1506 70.5165 70.0685 70.2804 69.9591L67.9648 70.633ZM68.9844 69.6135L70.0903 69.2852C70.1709 69.2621 70.253 69.2535 70.3365 69.2593C70.4201 69.265 70.4993 69.2852 70.5741 69.3197C70.7585 69.4119 70.9514 69.481 71.153 69.5271C71.3546 69.5732 71.5591 69.5962 71.7665 69.5962C72.5383 69.5962 73.1921 69.3284 73.7278 68.7927C74.2635 68.257 74.5313 67.6032 74.5313 66.8314C74.5313 66.0596 74.2635 65.4058 73.7278 64.8701C73.1921 64.3344 72.5383 64.0666 71.7665 64.0666C70.9946 64.0666 70.3409 64.3344 69.8052 64.8701C69.2695 65.4058 69.0017 66.0596 69.0017 66.8314C69.0017 67.0388 69.0247 67.2432 69.0708 67.4448C69.1169 67.6464 69.186 67.8394 69.2781 68.0237C69.3185 68.0986 69.3401 68.1778 69.3429 68.2613C69.3458 68.3449 69.3357 68.4269 69.3127 68.5076L68.9844 69.6135Z" fill="white"/>
  </g>
  <path d="M81.6369 69.3845C81.2871 69.3845 80.9728 69.3237 80.6941 69.202C80.4203 69.0753 80.2049 68.903 80.0478 68.685C79.8907 68.462 79.8095 68.206 79.8045 67.9171H80.542C80.5673 68.1655 80.6687 68.3758 80.8461 68.5482C81.0286 68.7154 81.2922 68.7991 81.6369 68.7991C81.9663 68.7991 82.2249 68.718 82.4124 68.5558C82.605 68.3885 82.7013 68.1756 82.7013 67.9171C82.7013 67.7143 82.6456 67.5496 82.5341 67.4229C82.4225 67.2962 82.2831 67.1998 82.1159 67.134C81.9486 67.0681 81.723 66.9971 81.4392 66.9211C81.0894 66.8298 80.8081 66.7386 80.5952 66.6473C80.3874 66.5561 80.2075 66.4142 80.0554 66.2216C79.9084 66.0239 79.8349 65.7603 79.8349 65.4308C79.8349 65.1419 79.9084 64.8859 80.0554 64.6629C80.2024 64.4399 80.4077 64.2675 80.6713 64.1459C80.9399 64.0242 81.2466 63.9634 81.5912 63.9634C82.088 63.9634 82.4935 64.0876 82.8078 64.336C83.1271 64.5843 83.3071 64.9138 83.3476 65.3244H82.5873C82.5619 65.1216 82.4555 64.9442 82.2679 64.7921C82.0804 64.635 81.832 64.5564 81.5228 64.5564C81.2339 64.5564 80.9982 64.6325 80.8157 64.7845C80.6332 64.9315 80.542 65.1394 80.542 65.408C80.542 65.6006 80.5952 65.7578 80.7017 65.8794C80.8132 66.0011 80.9475 66.0948 81.1046 66.1607C81.2668 66.2216 81.4924 66.2925 81.7813 66.3736C82.1311 66.4699 82.4124 66.5662 82.6253 66.6626C82.8382 66.7538 83.0207 66.8983 83.1727 67.0959C83.3248 67.2886 83.4008 67.5521 83.4008 67.8867C83.4008 68.1452 83.3324 68.3885 83.1955 68.6166C83.0587 68.8447 82.8559 69.0297 82.5873 69.1716C82.3186 69.3136 82.0018 69.3845 81.6369 69.3845ZM89.7945 64.0698V69.3313H89.1026V65.408L87.3539 69.3313H86.8673L85.1109 65.4004V69.3313H84.419V64.0698H85.1641L87.1106 68.4189L89.057 64.0698H89.7945ZM92.6482 69.3845C92.2985 69.3845 91.9842 69.3237 91.7054 69.202C91.4317 69.0753 91.2163 68.903 91.0592 68.685C90.902 68.462 90.8209 68.206 90.8159 67.9171H91.5534C91.5787 68.1655 91.6801 68.3758 91.8575 68.5482C92.04 68.7154 92.3036 68.7991 92.6482 68.7991C92.9777 68.7991 93.2362 68.718 93.4238 68.5558C93.6164 68.3885 93.7127 68.1756 93.7127 67.9171C93.7127 67.7143 93.6569 67.5496 93.5454 67.4229C93.4339 67.2962 93.2945 67.1998 93.1273 67.134C92.96 67.0681 92.7344 66.9971 92.4506 66.9211C92.1008 66.8298 91.8195 66.7386 91.6066 66.6473C91.3988 66.5561 91.2188 66.4142 91.0668 66.2216C90.9198 66.0239 90.8463 65.7603 90.8463 65.4308C90.8463 65.1419 90.9198 64.8859 91.0668 64.6629C91.2138 64.4399 91.419 64.2675 91.6826 64.1459C91.9513 64.0242 92.2579 63.9634 92.6026 63.9634C93.0994 63.9634 93.5049 64.0876 93.8191 64.336C94.1385 64.5843 94.3184 64.9138 94.359 65.3244H93.5987C93.5733 65.1216 93.4669 64.9442 93.2793 64.7921C93.0918 64.635 92.8434 64.5564 92.5342 64.5564C92.2453 64.5564 92.0096 64.6325 91.8271 64.7845C91.6446 64.9315 91.5534 65.1394 91.5534 65.408C91.5534 65.6006 91.6066 65.7578 91.713 65.8794C91.8246 66.0011 91.9589 66.0948 92.116 66.1607C92.2782 66.2216 92.5038 66.2925 92.7927 66.3736C93.1425 66.4699 93.4238 66.5662 93.6367 66.6626C93.8496 66.7538 94.032 66.8983 94.1841 67.0959C94.3362 67.2886 94.4122 67.5521 94.4122 67.8867C94.4122 68.1452 94.3438 68.3885 94.2069 68.6166C94.0701 68.8447 93.8673 69.0297 93.5987 69.1716C93.33 69.3136 93.0132 69.3845 92.6482 69.3845Z" fill="white"/>
  </g>
  <g filter="url(#filter1_d_0_1)">
  <rect x="306.82" y="32.7704" width="52.8773" height="18.5813" rx="4.87285" fill="url(#paint15_linear_0_1)"/>
  <rect x="307.032" y="32.9823" width="52.4536" height="18.1575" rx="4.66098" stroke="url(#paint16_linear_0_1)" stroke-width="0.423739"/>
  <mask id="mask8_0_1" style="mask-type:alpha" maskUnits="userSpaceOnUse" x="319" y="37" width="9" height="10">
  <rect x="319.383" y="37.9138" width="8.29448" height="8.29448" fill="#D9D9D9"/>
  </mask>
  <g mask="url(#mask8_0_1)">
  <path d="M319.727 45.8626L320.4 43.5471C320.291 43.3109 320.209 43.069 320.154 42.8213C320.1 42.5737 320.072 42.3202 320.072 42.061C320.072 41.5829 320.163 41.1336 320.344 40.7132C320.526 40.2927 320.772 39.9269 321.083 39.6159C321.394 39.3048 321.76 39.0586 322.18 38.8771C322.601 38.6957 323.05 38.605 323.528 38.605C324.006 38.605 324.456 38.6957 324.876 38.8771C325.297 39.0586 325.662 39.3048 325.973 39.6159C326.284 39.9269 326.531 40.2927 326.712 40.7132C326.894 41.1336 326.984 41.5829 326.984 42.061C326.984 42.5391 326.894 42.9884 326.712 43.4089C326.531 43.8293 326.284 44.1951 325.973 44.5062C325.662 44.8172 325.297 45.0634 324.876 45.2449C324.456 45.4263 324.006 45.517 323.528 45.517C323.269 45.517 323.016 45.4897 322.768 45.435C322.52 45.3802 322.278 45.2982 322.042 45.1887L319.727 45.8626ZM320.746 44.8431L321.852 44.5148C321.933 44.4918 322.015 44.4831 322.098 44.4889C322.182 44.4946 322.261 44.5148 322.336 44.5494C322.52 44.6415 322.713 44.7106 322.915 44.7567C323.116 44.8028 323.321 44.8258 323.528 44.8258C324.3 44.8258 324.954 44.558 325.489 44.0223C326.025 43.4866 326.293 42.8329 326.293 42.061C326.293 41.2892 326.025 40.6354 325.489 40.0997C324.954 39.564 324.3 39.2962 323.528 39.2962C322.756 39.2962 322.103 39.564 321.567 40.0997C321.031 40.6354 320.763 41.2892 320.763 42.061C320.763 42.2684 320.786 42.4729 320.832 42.6745C320.879 42.8761 320.948 43.069 321.04 43.2533C321.08 43.3282 321.102 43.4074 321.105 43.4909C321.108 43.5745 321.097 43.6565 321.074 43.7372L320.746 44.8431Z" fill="white"/>
  </g>
  <path d="M333.399 44.6143C333.049 44.6143 332.735 44.5534 332.456 44.4318C332.182 44.3051 331.967 44.1327 331.81 43.9148C331.652 43.6917 331.571 43.4358 331.566 43.1468H332.304C332.329 43.3952 332.43 43.6056 332.608 43.7779C332.79 43.9452 333.054 44.0288 333.399 44.0288C333.728 44.0288 333.987 43.9477 334.174 43.7855C334.367 43.6182 334.463 43.4053 334.463 43.1468C334.463 42.9441 334.407 42.7793 334.296 42.6526C334.184 42.5259 334.045 42.4296 333.878 42.3637C333.71 42.2978 333.485 42.2268 333.201 42.1508C332.851 42.0596 332.57 41.9683 332.357 41.8771C332.149 41.7858 331.969 41.6439 331.817 41.4513C331.67 41.2536 331.597 40.99 331.597 40.6606C331.597 40.3716 331.67 40.1157 331.817 39.8926C331.964 39.6696 332.169 39.4973 332.433 39.3756C332.702 39.254 333.008 39.1931 333.353 39.1931C333.85 39.1931 334.255 39.3173 334.569 39.5657C334.889 39.8141 335.069 40.1435 335.109 40.5541H334.349C334.324 40.3514 334.217 40.1739 334.03 40.0219C333.842 39.8647 333.594 39.7862 333.285 39.7862C332.996 39.7862 332.76 39.8622 332.577 40.0143C332.395 40.1613 332.304 40.3691 332.304 40.6377C332.304 40.8304 332.357 40.9875 332.463 41.1092C332.575 41.2308 332.709 41.3246 332.866 41.3905C333.029 41.4513 333.254 41.5223 333.543 41.6034C333.893 41.6997 334.174 41.796 334.387 41.8923C334.6 41.9835 334.782 42.128 334.934 42.3257C335.087 42.5183 335.163 42.7819 335.163 43.1164C335.163 43.3749 335.094 43.6182 334.957 43.8463C334.82 44.0744 334.618 44.2594 334.349 44.4014C334.08 44.5433 333.764 44.6143 333.399 44.6143ZM341.556 39.2996V44.561H340.864V40.6377L339.116 44.561H338.629L336.873 40.6301V44.561H336.181V39.2996H336.926L338.872 43.6486L340.819 39.2996H341.556ZM344.41 44.6143C344.06 44.6143 343.746 44.5534 343.467 44.4318C343.193 44.3051 342.978 44.1327 342.821 43.9148C342.664 43.6917 342.583 43.4358 342.578 43.1468H343.315C343.34 43.3952 343.442 43.6056 343.619 43.7779C343.802 43.9452 344.065 44.0288 344.41 44.0288C344.739 44.0288 344.998 43.9477 345.185 43.7855C345.378 43.6182 345.474 43.4053 345.474 43.1468C345.474 42.9441 345.419 42.7793 345.307 42.6526C345.196 42.5259 345.056 42.4296 344.889 42.3637C344.722 42.2978 344.496 42.2268 344.212 42.1508C343.863 42.0596 343.581 41.9683 343.368 41.8771C343.16 41.7858 342.981 41.6439 342.828 41.4513C342.681 41.2536 342.608 40.99 342.608 40.6606C342.608 40.3716 342.681 40.1157 342.828 39.8926C342.975 39.6696 343.181 39.4973 343.444 39.3756C343.713 39.254 344.02 39.1931 344.364 39.1931C344.861 39.1931 345.267 39.3173 345.581 39.5657C345.9 39.8141 346.08 40.1435 346.121 40.5541H345.36C345.335 40.3514 345.229 40.1739 345.041 40.0219C344.853 39.8647 344.605 39.7862 344.296 39.7862C344.007 39.7862 343.771 39.8622 343.589 40.0143C343.406 40.1613 343.315 40.3691 343.315 40.6377C343.315 40.8304 343.368 40.9875 343.475 41.1092C343.586 41.2308 343.721 41.3246 343.878 41.3905C344.04 41.4513 344.266 41.5223 344.554 41.6034C344.904 41.6997 345.185 41.796 345.398 41.8923C345.611 41.9835 345.794 42.128 345.946 42.3257C346.098 42.5183 346.174 42.7819 346.174 43.1164C346.174 43.3749 346.105 43.6182 345.969 43.8463C345.832 44.0744 345.629 44.2594 345.36 44.4014C345.092 44.5433 344.775 44.6143 344.41 44.6143Z" fill="white"/>
  </g>
  <g filter="url(#filter2_d_0_1)">
  <rect x="201.246" y="8" width="31.6735" height="31.6735" rx="3.80082" fill="url(#paint17_linear_0_1)"/>
  <rect x="201.411" y="8.16526" width="31.343" height="31.343" rx="3.63557" stroke="url(#paint18_linear_0_1)" stroke-width="0.330517"/>
  <path d="M218.98 26.6818C216.491 26.6818 214.466 24.6553 214.465 22.1654C214.466 21.5342 214.979 21.021 215.609 21.021C215.674 21.021 215.738 21.0264 215.799 21.0374C215.934 21.0598 216.062 21.1055 216.18 21.1744C216.197 21.1846 216.209 21.2009 216.211 21.22L216.474 22.8784C216.478 22.8975 216.472 22.9172 216.459 22.9315C216.314 23.0924 216.128 23.2083 215.922 23.2662L215.822 23.2942L215.86 23.3903C216.199 24.2545 216.89 24.945 217.755 25.2858L217.851 25.324L217.879 25.2245C217.937 25.0179 218.052 24.8326 218.213 24.6874C218.225 24.6765 218.241 24.671 218.256 24.671C218.26 24.671 218.263 24.671 218.267 24.6717L219.925 24.9348C219.945 24.9382 219.961 24.9491 219.971 24.9661C220.039 25.0841 220.085 25.2129 220.108 25.3478C220.119 25.4078 220.124 25.4712 220.124 25.5373C220.124 26.1678 219.611 26.6811 218.98 26.6818Z" fill="#FDFDFD"/>
  <path d="M223.396 23.2901C223.261 21.7729 222.566 20.3654 221.439 19.3273C220.304 18.283 218.832 17.7078 217.293 17.7078C213.914 17.7078 211.166 20.4574 211.166 23.8368C211.166 24.971 211.478 26.0759 212.071 27.0383L210.75 29.9624L214.978 29.5118C215.713 29.8131 216.492 29.9658 217.292 29.9658C217.503 29.9658 217.719 29.9549 217.935 29.9324C218.126 29.912 218.319 29.882 218.509 29.8438C221.338 29.2719 223.403 26.7602 223.419 23.8695V23.8368C223.419 23.6527 223.411 23.4687 223.395 23.2908L223.396 23.2901ZM215.141 28.2284L212.802 28.4779L213.5 26.9299L213.36 26.7425C213.35 26.7288 213.34 26.7152 213.328 26.6995C212.722 25.8618 212.402 24.8721 212.402 23.8375C212.402 21.1397 214.596 18.9449 217.293 18.9449C219.82 18.9449 221.961 20.9168 222.168 23.434C222.179 23.5689 222.185 23.7046 222.185 23.8381C222.185 23.8763 222.184 23.9138 222.183 23.954C222.132 26.2108 220.555 28.1275 218.35 28.6155C218.182 28.653 218.01 28.6817 217.838 28.7001C217.659 28.7205 217.476 28.7307 217.294 28.7307C216.646 28.7307 216.017 28.6053 215.422 28.3572C215.356 28.3306 215.291 28.302 215.23 28.2727L215.142 28.2297L215.141 28.2284Z" fill="#FDFDFD"/>
  </g>
  <g filter="url(#filter3_d_0_1)">
  <rect x="280.43" y="70.941" width="52.8773" height="18.5813" rx="4.87285" fill="url(#paint19_linear_0_1)"/>
  <rect x="280.642" y="71.1529" width="52.4536" height="18.1575" rx="4.66098" stroke="url(#paint20_linear_0_1)" stroke-width="0.423739"/>
  <mask id="mask9_0_1" style="mask-type:alpha" maskUnits="userSpaceOnUse" x="292" y="76" width="10" height="9">
  <rect x="292.992" y="76.0845" width="8.29448" height="8.29448" fill="#D9D9D9"/>
  </mask>
  <g mask="url(#mask9_0_1)">
  <path d="M295.414 82.3053V78.158H296.105V82.3053H295.414ZM296.796 83.6877V76.7756H297.487V83.6877H296.796ZM294.031 80.9229V79.5405H294.722V80.9229H294.031ZM298.178 82.3053V78.158H298.87V82.3053H298.178ZM299.561 80.9229V79.5405H300.252V80.9229H299.561Z" fill="#1C1B1F"/>
  </g>
  <path d="M309.707 77.4322L307.707 82.7317H306.909L304.909 77.4322H305.647L307.312 82.0018L308.977 77.4322H309.707ZM312.868 82.7849C312.377 82.7849 311.928 82.6709 311.523 82.4428C311.117 82.2096 310.795 81.8877 310.557 81.4771C310.324 81.0615 310.207 80.5952 310.207 80.0781C310.207 79.5611 310.324 79.0973 310.557 78.6867C310.795 78.2711 311.117 77.9492 311.523 77.7211C311.928 77.488 312.377 77.3714 312.868 77.3714C313.365 77.3714 313.816 77.488 314.222 77.7211C314.627 77.9492 314.947 78.2686 315.18 78.6791C315.413 79.0897 315.53 79.5561 315.53 80.0781C315.53 80.6002 315.413 81.0666 315.18 81.4771C314.947 81.8877 314.627 82.2096 314.222 82.4428C313.816 82.6709 313.365 82.7849 312.868 82.7849ZM312.868 82.1843C313.238 82.1843 313.57 82.0981 313.864 81.9257C314.164 81.7534 314.397 81.5076 314.564 81.1882C314.736 80.8689 314.822 80.4989 314.822 80.0781C314.822 79.6524 314.736 79.2823 314.564 78.9681C314.397 78.6487 314.166 78.4029 313.872 78.2306C313.578 78.0582 313.244 77.972 312.868 77.972C312.493 77.972 312.159 78.0582 311.865 78.2306C311.571 78.4029 311.338 78.6487 311.165 78.9681C310.998 79.2823 310.914 79.6524 310.914 80.0781C310.914 80.4989 310.998 80.8689 311.165 81.1882C311.338 81.5076 311.571 81.7534 311.865 81.9257C312.164 82.0981 312.498 82.1843 312.868 82.1843ZM317.028 82.131H319.614V82.7317H316.207V82.1843L318.777 78.0329H316.238V77.4322H319.598V77.9796L317.028 82.131Z" fill="#1D1C1E"/>
  </g>
  <g filter="url(#filter4_d_0_1)">
  <rect x="100.945" y="23.8368" width="52.8773" height="18.5813" rx="4.87285" fill="url(#paint21_linear_0_1)"/>
  <rect x="101.157" y="24.0487" width="52.4536" height="18.1575" rx="4.66098" stroke="url(#paint22_linear_0_1)" stroke-width="0.423739"/>
  <mask id="mask10_0_1" style="mask-type:alpha" maskUnits="userSpaceOnUse" x="113" y="28" width="9" height="10">
  <rect x="113.508" y="28.9802" width="8.29448" height="8.29448" fill="#D9D9D9"/>
  </mask>
  <g mask="url(#mask10_0_1)">
  <path d="M115.929 35.201V31.0538H116.62V35.201H115.929ZM117.312 36.5835V29.6714H118.003V36.5835H117.312ZM114.547 33.8186V32.4362H115.238V33.8186H114.547ZM118.694 35.201V31.0538H119.385V35.201H118.694ZM120.077 33.8186V32.4362H120.768V33.8186H120.077Z" fill="#1C1B1F"/>
  </g>
  <path d="M130.223 30.328L128.223 35.6274H127.425L125.425 30.328H126.163L127.828 34.8975L129.493 30.328H130.223ZM133.384 35.6807C132.892 35.6807 132.444 35.5666 132.038 35.3385C131.633 35.1054 131.311 34.7835 131.073 34.3729C130.839 33.9573 130.723 33.4909 130.723 32.9739C130.723 32.4569 130.839 31.9931 131.073 31.5825C131.311 31.1669 131.633 30.845 132.038 30.6169C132.444 30.3837 132.892 30.2671 133.384 30.2671C133.881 30.2671 134.332 30.3837 134.737 30.6169C135.143 30.845 135.462 31.1643 135.695 31.5749C135.929 31.9855 136.045 32.4518 136.045 32.9739C136.045 33.496 135.929 33.9623 135.695 34.3729C135.462 34.7835 135.143 35.1054 134.737 35.3385C134.332 35.5666 133.881 35.6807 133.384 35.6807ZM133.384 35.08C133.754 35.08 134.086 34.9938 134.38 34.8215C134.679 34.6492 134.912 34.4033 135.08 34.084C135.252 33.7646 135.338 33.3946 135.338 32.9739C135.338 32.5481 135.252 32.1781 135.08 31.8638C134.912 31.5445 134.682 31.2986 134.388 31.1263C134.094 30.954 133.759 30.8678 133.384 30.8678C133.009 30.8678 132.674 30.954 132.38 31.1263C132.086 31.2986 131.853 31.5445 131.681 31.8638C131.514 32.1781 131.43 32.5481 131.43 32.9739C131.43 33.3946 131.514 33.7646 131.681 34.084C131.853 34.4033 132.086 34.6492 132.38 34.8215C132.679 34.9938 133.014 35.08 133.384 35.08ZM137.544 35.0268H140.129V35.6274H136.723V35.08L139.293 30.9286H136.753V30.328H140.114V30.8754L137.544 35.0268Z" fill="#1D1C1E"/>
  </g>
  <g filter="url(#filter5_f_0_1)">
  <circle cx="311.543" cy="311.543" r="311.543" transform="matrix(-1 0 0 1 499.547 104.82)" fill="url(#paint23_linear_0_1)" fill-opacity="0.5"/>
  </g>
  <defs>
  <filter id="filter0_d_0_1" x="51.6026" y="54.0846" width="59.791" height="25.4934" filterUnits="userSpaceOnUse" color-interpolation-filters="sRGB">
  <feFlood flood-opacity="0" result="BackgroundImageFix"/>
  <feColorMatrix in="SourceAlpha" type="matrix" values="0 0 0 0 0 0 0 0 0 0 0 0 0 0 0 0 0 0 127 0" result="hardAlpha"/>
  <feOffset/>
  <feGaussianBlur stdDeviation="1.72802"/>
  <feComposite in2="hardAlpha" operator="out"/>
  <feColorMatrix type="matrix" values="0 0 0 0 0.505882 0 0 0 0 0.027451 0 0 0 0 0.890196 0 0 0 0.3 0"/>
  <feBlend mode="normal" in2="BackgroundImageFix" result="effect1_dropShadow_0_1"/>
  <feBlend mode="normal" in="SourceGraphic" in2="effect1_dropShadow_0_1" result="shape"/>
  </filter>
  <filter id="filter1_d_0_1" x="303.364" y="29.3144" width="59.791" height="25.4934" filterUnits="userSpaceOnUse" color-interpolation-filters="sRGB">
  <feFlood flood-opacity="0" result="BackgroundImageFix"/>
  <feColorMatrix in="SourceAlpha" type="matrix" values="0 0 0 0 0 0 0 0 0 0 0 0 0 0 0 0 0 0 127 0" result="hardAlpha"/>
  <feOffset/>
  <feGaussianBlur stdDeviation="1.72802"/>
  <feComposite in2="hardAlpha" operator="out"/>
  <feColorMatrix type="matrix" values="0 0 0 0 0.505882 0 0 0 0 0.027451 0 0 0 0 0.890196 0 0 0 0.3 0"/>
  <feBlend mode="normal" in2="BackgroundImageFix" result="effect1_dropShadow_0_1"/>
  <feBlend mode="normal" in="SourceGraphic" in2="effect1_dropShadow_0_1" result="shape"/>
  </filter>
  <filter id="filter2_d_0_1" x="198.55" y="5.3043" width="37.0633" height="37.065" filterUnits="userSpaceOnUse" color-interpolation-filters="sRGB">
  <feFlood flood-opacity="0" result="BackgroundImageFix"/>
  <feColorMatrix in="SourceAlpha" type="matrix" values="0 0 0 0 0 0 0 0 0 0 0 0 0 0 0 0 0 0 127 0" result="hardAlpha"/>
  <feOffset/>
  <feGaussianBlur stdDeviation="1.34785"/>
  <feComposite in2="hardAlpha" operator="out"/>
  <feColorMatrix type="matrix" values="0 0 0 0 0.505882 0 0 0 0 0.027451 0 0 0 0 0.890196 0 0 0 0.3 0"/>
  <feBlend mode="normal" in2="BackgroundImageFix" result="effect1_dropShadow_0_1"/>
  <feBlend mode="normal" in="SourceGraphic" in2="effect1_dropShadow_0_1" result="shape"/>
  </filter>
  <filter id="filter3_d_0_1" x="276.974" y="67.485" width="59.791" height="25.4934" filterUnits="userSpaceOnUse" color-interpolation-filters="sRGB">
  <feFlood flood-opacity="0" result="BackgroundImageFix"/>
  <feColorMatrix in="SourceAlpha" type="matrix" values="0 0 0 0 0 0 0 0 0 0 0 0 0 0 0 0 0 0 127 0" result="hardAlpha"/>
  <feOffset/>
  <feGaussianBlur stdDeviation="1.72802"/>
  <feComposite in2="hardAlpha" operator="out"/>
  <feColorMatrix type="matrix" values="0 0 0 0 0.505882 0 0 0 0 0.027451 0 0 0 0 0.890196 0 0 0 0.3 0"/>
  <feBlend mode="normal" in2="BackgroundImageFix" result="effect1_dropShadow_0_1"/>
  <feBlend mode="normal" in="SourceGraphic" in2="effect1_dropShadow_0_1" result="shape"/>
  </filter>
  <filter id="filter4_d_0_1" x="97.4893" y="20.3808" width="59.791" height="25.4934" filterUnits="userSpaceOnUse" color-interpolation-filters="sRGB">
  <feFlood flood-opacity="0" result="BackgroundImageFix"/>
  <feColorMatrix in="SourceAlpha" type="matrix" values="0 0 0 0 0 0 0 0 0 0 0 0 0 0 0 0 0 0 127 0" result="hardAlpha"/>
  <feOffset/>
  <feGaussianBlur stdDeviation="1.72802"/>
  <feComposite in2="hardAlpha" operator="out"/>
  <feColorMatrix type="matrix" values="0 0 0 0 0.505882 0 0 0 0 0.027451 0 0 0 0 0.890196 0 0 0 0.3 0"/>
  <feBlend mode="normal" in2="BackgroundImageFix" result="effect1_dropShadow_0_1"/>
  <feBlend mode="normal" in="SourceGraphic" in2="effect1_dropShadow_0_1" result="shape"/>
  </filter>
  <filter id="filter5_f_0_1" x="-227.387" y="0.972664" width="830.781" height="830.781" filterUnits="userSpaceOnUse" color-interpolation-filters="sRGB">
  <feFlood flood-opacity="0" result="BackgroundImageFix"/>
  <feBlend mode="normal" in="SourceGraphic" in2="BackgroundImageFix" result="shape"/>
  <feGaussianBlur stdDeviation="51.9238" result="effect1_foregroundBlur_0_1"/>
  </filter>
  <linearGradient id="paint0_linear_0_1" x1="214.645" y1="22.2124" x2="214.645" y2="286.565" gradientUnits="userSpaceOnUse">
  <stop stop-color="#8107E3"/>
  <stop offset="1" stop-color="#47047D" stop-opacity="0.2"/>
  </linearGradient>
  <linearGradient id="paint1_linear_0_1" x1="16.2428" y1="16.2428" x2="0" y2="16.2428" gradientUnits="userSpaceOnUse">
  <stop stop-color="#999999"/>
  <stop offset="0.475" stop-color="white"/>
  <stop offset="1" stop-color="#999999"/>
  </linearGradient>
  <linearGradient id="paint2_linear_0_1" x1="367.466" y1="81.7697" x2="374.91" y2="81.7697" gradientUnits="userSpaceOnUse">
  <stop stop-color="#999999"/>
  <stop offset="0.475" stop-color="white"/>
  <stop offset="1" stop-color="#999999"/>
  </linearGradient>
  <linearGradient id="paint3_linear_0_1" x1="276.364" y1="37.6431" x2="260.121" y2="37.6431" gradientUnits="userSpaceOnUse">
  <stop stop-color="#999999"/>
  <stop offset="0.475" stop-color="white"/>
  <stop offset="1" stop-color="#999999"/>
  </linearGradient>
  <linearGradient id="paint4_linear_0_1" x1="272.975" y1="34.2593" x2="263.5" y2="34.2593" gradientUnits="userSpaceOnUse">
  <stop stop-color="#999999"/>
  <stop offset="0.475" stop-color="white"/>
  <stop offset="1" stop-color="#999999"/>
  </linearGradient>
  <linearGradient id="paint5_linear_0_1" x1="262.559" y1="75.4076" x2="246.316" y2="75.4076" gradientUnits="userSpaceOnUse">
  <stop stop-color="#999999"/>
  <stop offset="0.475" stop-color="white"/>
  <stop offset="1" stop-color="#999999"/>
  </linearGradient>
  <linearGradient id="paint6_linear_0_1" x1="261.204" y1="73.3771" x2="247.668" y2="73.3771" gradientUnits="userSpaceOnUse">
  <stop stop-color="#999999"/>
  <stop offset="0.475" stop-color="white"/>
  <stop offset="1" stop-color="#999999"/>
  </linearGradient>
  <linearGradient id="paint7_linear_0_1" x1="31.9108" y1="123.324" x2="15.668" y2="123.324" gradientUnits="userSpaceOnUse">
  <stop stop-color="#999999"/>
  <stop offset="0.475" stop-color="white"/>
  <stop offset="1" stop-color="#999999"/>
  </linearGradient>
  <linearGradient id="paint8_linear_0_1" x1="29.8813" y1="121.294" x2="17.6992" y2="121.294" gradientUnits="userSpaceOnUse">
  <stop stop-color="#999999"/>
  <stop offset="0.475" stop-color="white"/>
  <stop offset="1" stop-color="#999999"/>
  </linearGradient>
  <linearGradient id="paint9_linear_0_1" x1="201.239" y1="72.1591" x2="184.996" y2="72.1591" gradientUnits="userSpaceOnUse">
  <stop stop-color="#999999"/>
  <stop offset="0.475" stop-color="white"/>
  <stop offset="1" stop-color="#999999"/>
  </linearGradient>
  <linearGradient id="paint10_linear_0_1" x1="199.883" y1="70.8056" x2="186.348" y2="70.8056" gradientUnits="userSpaceOnUse">
  <stop stop-color="#999999"/>
  <stop offset="0.475" stop-color="white"/>
  <stop offset="1" stop-color="#999999"/>
  </linearGradient>
  <linearGradient id="paint11_linear_0_1" x1="139.926" y1="95.0144" x2="123.684" y2="95.0144" gradientUnits="userSpaceOnUse">
  <stop stop-color="#999999"/>
  <stop offset="0.475" stop-color="white"/>
  <stop offset="1" stop-color="#999999"/>
  </linearGradient>
  <linearGradient id="paint12_linear_0_1" x1="143.789" y1="77.8143" x2="134.696" y2="86.9069" gradientUnits="userSpaceOnUse">
  <stop stop-color="#999999"/>
  <stop offset="0.475" stop-color="white"/>
  <stop offset="1" stop-color="#999999"/>
  </linearGradient>
  <linearGradient id="paint13_linear_0_1" x1="69.8391" y1="59.2655" x2="74.1303" y2="81.9842" gradientUnits="userSpaceOnUse">
  <stop stop-color="#B058F6"/>
  <stop offset="1" stop-color="#8107E3"/>
  </linearGradient>
  <linearGradient id="paint14_linear_0_1" x1="60.2082" y1="57.5406" x2="105.21" y2="65.1999" gradientUnits="userSpaceOnUse">
  <stop stop-color="#D29BFF"/>
  <stop offset="1" stop-color="#8107E3"/>
  </linearGradient>
  <linearGradient id="paint15_linear_0_1" x1="321.601" y1="34.4952" x2="325.892" y2="57.214" gradientUnits="userSpaceOnUse">
  <stop stop-color="#B058F6"/>
  <stop offset="1" stop-color="#8107E3"/>
  </linearGradient>
  <linearGradient id="paint16_linear_0_1" x1="311.97" y1="32.7704" x2="356.972" y2="40.4296" gradientUnits="userSpaceOnUse">
  <stop stop-color="#D29BFF"/>
  <stop offset="1" stop-color="#8107E3"/>
  </linearGradient>
  <linearGradient id="paint17_linear_0_1" x1="210.1" y1="10.9401" x2="226.826" y2="42.0576" gradientUnits="userSpaceOnUse">
  <stop stop-color="#B058F6"/>
  <stop offset="1" stop-color="#8107E3"/>
  </linearGradient>
  <linearGradient id="paint18_linear_0_1" x1="204.331" y1="8" x2="231.969" y2="9.65299" gradientUnits="userSpaceOnUse">
  <stop stop-color="#D29BFF"/>
  <stop offset="1" stop-color="#8107E3"/>
  </linearGradient>
  <linearGradient id="paint19_linear_0_1" x1="295.21" y1="72.6658" x2="299.501" y2="95.3846" gradientUnits="userSpaceOnUse">
  <stop stop-color="white"/>
  <stop offset="1" stop-color="#D6D6D6"/>
  </linearGradient>
  <linearGradient id="paint20_linear_0_1" x1="285.579" y1="70.941" x2="330.582" y2="78.6003" gradientUnits="userSpaceOnUse">
  <stop stop-color="white"/>
  <stop offset="1" stop-color="#C2C2C2"/>
  </linearGradient>
  <linearGradient id="paint21_linear_0_1" x1="115.726" y1="25.5616" x2="120.017" y2="48.2804" gradientUnits="userSpaceOnUse">
  <stop stop-color="white"/>
  <stop offset="1" stop-color="#D6D6D6"/>
  </linearGradient>
  <linearGradient id="paint22_linear_0_1" x1="106.095" y1="23.8368" x2="151.097" y2="31.496" gradientUnits="userSpaceOnUse">
  <stop stop-color="white"/>
  <stop offset="1" stop-color="#C2C2C2"/>
  </linearGradient>
  <linearGradient id="paint23_linear_0_1" x1="311.543" y1="0" x2="311.543" y2="623.086" gradientUnits="userSpaceOnUse">
  <stop stop-color="#8107E3"/>
  <stop offset="1" stop-color="#8107E3"/>
  <stop offset="1" stop-color="#75E307"/>
  </linearGradient>
  </defs>
  </svg>
  