<svg width="2383" height="776" viewBox="0 0 2383 776" fill="none"
  xmlns="http://www.w3.org/2000/svg">
  <mask id="mask0_0_1" style="mask-type:alpha" maskUnits="userSpaceOnUse" x="497" y="122" width="1200" height="1200">
    <path d="M1696.28 722C1696.28 1052.98 1427.98 1321.28 1097 1321.28C766.024 1321.28 497.715 1052.98 497.715 722C497.715 391.024 766.024 122.715 1097 122.715C1427.98 122.715 1696.28 391.024 1696.28 722Z" stroke="#8107E3" stroke-width="1.43042"/>
    <circle cx="1097" cy="722" r="499.285" stroke="#8107E3" stroke-width="1.43042"/>
    <circle cx="1097" cy="722" r="399.285" stroke="#8107E3" stroke-width="1.43042"/>
    <circle cx="1097" cy="722" r="299.285" stroke="#8107E3" stroke-width="1.43042"/>
  </mask>
  <g mask="url(#mask0_0_1)">
    <rect x="489" y="122" width="1216" height="651" fill="url(#paint0_linear_0_1)"/>
  </g>
  <circle cx="623.5" cy="351.5" r="16.5" fill="#1E1D1F"/>
  <circle cx="896.5" cy="267.5" r="16.5" fill="#1E1D1F"/>
  <circle cx="1045" cy="225" r="21" fill="#1E1D1F"/>
  <circle cx="1195" cy="239" r="21" fill="#1E1D1F"/>
  <circle cx="1227" cy="147" r="21" fill="#1E1D1F"/>
  <circle cx="1479" cy="263" r="21" fill="#1E1D1F"/>
  <mask id="mask1_0_1" style="mask-type:alpha" maskUnits="userSpaceOnUse" x="1460" y="237" width="40" height="40">
    <rect width="40" height="40" transform="matrix(-1 0 0 1 1500 237)" fill="url(#paint1_linear_0_1)" fill-opacity="0.5"/>
  </mask>
  <g mask="url(#mask1_0_1)">
    <path d="M1473.34 268.667L1491.68 257L1473.34 245.334V268.667ZM1476.68 262.584V251.417L1485.43 257L1476.68 262.584Z" fill="url(#paint2_linear_0_1)" fill-opacity="0.5"/>
  </g>
  <mask id="mask2_0_1" style="mask-type:alpha" maskUnits="userSpaceOnUse" x="1209" y="120" width="40" height="40">
    <rect x="1209" y="120" width="40" height="40" fill="url(#paint3_linear_0_1)" fill-opacity="0.5"/>
  </mask>
  <g mask="url(#mask2_0_1)">
    <path d="M1230.66 151.667V128.334H1240.66V151.667H1230.66ZM1217.32 151.667V128.334H1227.32V151.667H1217.32ZM1233.99 148.334H1237.32V131.667H1233.99V148.334ZM1220.66 148.334H1223.99V131.667H1220.66V148.334Z" fill="url(#paint4_linear_0_1)" fill-opacity="0.5"/>
  </g>
  <mask id="mask3_0_1" style="mask-type:alpha" maskUnits="userSpaceOnUse" x="1175" y="213" width="40" height="40">
    <rect x="1175" y="213" width="40" height="40" fill="url(#paint5_linear_0_1)" fill-opacity="0.5"/>
  </mask>
  <g mask="url(#mask3_0_1)">
    <path d="M1194.99 214.666L1210.07 223.666C1210.57 223.972 1210.96 224.389 1211.24 224.916C1211.52 225.444 1211.66 226 1211.66 226.583V244.666C1211.66 245.583 1211.33 246.368 1210.68 247.021C1210.03 247.673 1209.24 248 1208.32 248H1181.66C1180.74 248 1179.96 247.673 1179.3 247.021C1178.65 246.368 1178.32 245.583 1178.32 244.666V226.583C1178.32 226 1178.46 225.444 1178.74 224.916C1179.02 224.389 1179.41 223.972 1179.91 223.666L1194.99 214.666ZM1194.99 234.083L1207.99 226.333L1194.99 218.583L1181.99 226.333L1194.99 234.083ZM1194.99 238L1181.66 230V244.666H1208.32V230L1194.99 238Z" fill="url(#paint6_linear_0_1)" fill-opacity="0.5"/>
  </g>
  <mask id="mask4_0_1" style="mask-type:alpha" maskUnits="userSpaceOnUse" x="607" y="331" width="40" height="40">
    <rect x="607" y="331" width="40" height="40" fill="url(#paint7_linear_0_1)" fill-opacity="0.5"/>
  </mask>
  <g mask="url(#mask4_0_1)">
    <path d="M640.25 366C636.778 366 633.347 365.243 629.958 363.729C626.569 362.215 623.486 360.069 620.708 357.292C617.931 354.514 615.785 351.431 614.271 348.042C612.757 344.653 612 341.222 612 337.75C612 337.25 612.167 336.833 612.5 336.5C612.833 336.167 613.25 336 613.75 336H620.5C620.889 336 621.236 336.132 621.542 336.396C621.847 336.66 622.028 336.972 622.083 337.333L623.167 343.167C623.222 343.611 623.208 343.986 623.125 344.292C623.042 344.597 622.889 344.861 622.667 345.083L618.625 349.167C619.181 350.194 619.84 351.188 620.604 352.146C621.368 353.104 622.208 354.028 623.125 354.917C623.986 355.778 624.889 356.576 625.833 357.312C626.778 358.049 627.778 358.722 628.833 359.333L632.75 355.417C633 355.167 633.326 354.979 633.729 354.854C634.132 354.729 634.528 354.694 634.917 354.75L640.667 355.917C641.056 356.028 641.375 356.229 641.625 356.521C641.875 356.812 642 357.139 642 357.5V364.25C642 364.75 641.833 365.167 641.5 365.5C641.167 365.833 640.75 366 640.25 366ZM617.042 346L619.792 343.25L619.083 339.333H615.375C615.514 340.472 615.708 341.597 615.958 342.708C616.208 343.819 616.569 344.917 617.042 346ZM631.958 360.917C633.042 361.389 634.146 361.764 635.271 362.042C636.396 362.319 637.528 362.5 638.667 362.583V358.917L634.75 358.125L631.958 360.917Z" fill="url(#paint8_linear_0_1)" fill-opacity="0.5"/>
  </g>
  <mask id="mask5_0_1" style="mask-type:alpha" maskUnits="userSpaceOnUse" x="1024" y="205" width="40" height="40">
    <rect x="1024" y="205" width="40" height="40" fill="url(#paint9_linear_0_1)" fill-opacity="0.5"/>
  </mask>
  <g mask="url(#mask5_0_1)">
    <path d="M1033.74 233.5C1035.16 232.417 1036.74 231.563 1038.49 230.938C1040.24 230.313 1042.07 230 1043.99 230C1045.91 230 1047.74 230.313 1049.49 230.938C1051.24 231.563 1052.82 232.417 1054.24 233.5C1055.21 232.361 1055.97 231.07 1056.51 229.625C1057.05 228.181 1057.32 226.639 1057.32 225C1057.32 221.306 1056.03 218.16 1053.43 215.563C1050.83 212.966 1047.69 211.667 1043.99 211.667C1040.3 211.667 1037.15 212.966 1034.55 215.563C1031.96 218.16 1030.66 221.306 1030.66 225C1030.66 226.639 1030.93 228.181 1031.47 229.625C1032.01 231.07 1032.77 232.361 1033.74 233.5ZM1043.99 226.667C1042.35 226.667 1040.97 226.104 1039.85 224.979C1038.72 223.854 1038.16 222.473 1038.16 220.834C1038.16 219.195 1038.72 217.813 1039.85 216.688C1040.97 215.563 1042.35 215 1043.99 215C1045.63 215 1047.01 215.563 1048.14 216.688C1049.26 217.813 1049.82 219.195 1049.82 220.834C1049.82 222.473 1049.26 223.854 1048.14 224.979C1047.01 226.104 1045.63 226.667 1043.99 226.667ZM1043.99 241.667C1041.69 241.667 1039.52 241.229 1037.49 240.354C1035.46 239.479 1033.7 238.292 1032.2 236.792C1030.7 235.292 1029.51 233.528 1028.64 231.5C1027.76 229.473 1027.32 227.306 1027.32 225C1027.32 222.695 1027.76 220.528 1028.64 218.5C1029.51 216.473 1030.7 214.709 1032.2 213.209C1033.7 211.709 1035.46 210.521 1037.49 209.646C1039.52 208.771 1041.69 208.334 1043.99 208.334C1046.3 208.334 1048.46 208.771 1050.49 209.646C1052.52 210.521 1054.28 211.709 1055.78 213.209C1057.28 214.709 1058.47 216.473 1059.35 218.5C1060.22 220.528 1060.66 222.695 1060.66 225C1060.66 227.306 1060.22 229.473 1059.35 231.5C1058.47 233.528 1057.28 235.292 1055.78 236.792C1054.28 238.292 1052.52 239.479 1050.49 240.354C1048.46 241.229 1046.3 241.667 1043.99 241.667ZM1043.99 238.334C1045.46 238.334 1046.85 238.118 1048.16 237.688C1049.46 237.257 1050.66 236.639 1051.74 235.834C1050.66 235.028 1049.46 234.41 1048.16 233.979C1046.85 233.549 1045.46 233.334 1043.99 233.334C1042.52 233.334 1041.13 233.549 1039.82 233.979C1038.52 234.41 1037.32 235.028 1036.24 235.834C1037.32 236.639 1038.52 237.257 1039.82 237.688C1041.13 238.118 1042.52 238.334 1043.99 238.334ZM1043.99 223.334C1044.71 223.334 1045.31 223.098 1045.78 222.625C1046.25 222.153 1046.49 221.556 1046.49 220.834C1046.49 220.111 1046.25 219.514 1045.78 219.042C1045.31 218.57 1044.71 218.334 1043.99 218.334C1043.27 218.334 1042.67 218.57 1042.2 219.042C1041.73 219.514 1041.49 220.111 1041.49 220.834C1041.49 221.556 1041.73 222.153 1042.2 222.625C1042.67 223.098 1043.27 223.334 1043.99 223.334Z" fill="url(#paint10_linear_0_1)" fill-opacity="0.5"/>
  </g>
  <mask id="mask6_0_1" style="mask-type:alpha" maskUnits="userSpaceOnUse" x="873" y="233" width="57" height="57">
    <rect x="873" y="261.284" width="40" height="40" transform="rotate(-45 873 261.284)" fill="url(#paint11_linear_0_1)" fill-opacity="0.5"/>
  </mask>
  <g mask="url(#mask6_0_1)">
    <path d="M900.11 281.319L881.254 262.463L913.074 249.499L900.11 281.319ZM898.932 275.426L907.004 255.568L887.146 263.641L891.271 267.766L900.11 262.463L894.807 271.301L898.932 275.426Z" fill="url(#paint12_linear_0_1)" fill-opacity="0.5"/>
  </g>
  <g opacity="0.3">
    <g filter="url(#filter0_f_0_1)">
      <circle cx="873.96" cy="873.96" r="873.96" transform="matrix(-1 0 0 1 2175 426.449)" fill="url(#paint13_linear_0_1)" fill-opacity="0.4"/>
    </g>
    <g filter="url(#filter1_f_0_1)">
      <circle cx="639.483" cy="639.483" r="639.483" transform="matrix(-1 0 0 1 1639.97 322)" fill="url(#paint14_linear_0_1)" fill-opacity="0.5"/>
    </g>
  </g>
  <g filter="url(#filter2_d_0_1)">
    <rect x="704" y="209" width="130.217" height="45.0218" rx="12" fill="url(#paint15_linear_0_1)"/>
    <rect x="704.522" y="209.522" width="129.173" height="43.9783" rx="11.4782" stroke="url(#paint16_linear_0_1)" stroke-width="1.04351"/>
    <mask id="mask7_0_1" style="mask-type:alpha" maskUnits="userSpaceOnUse" x="735" y="221" width="21" height="21">
      <rect x="735.141" y="221.298" width="20.4262" height="20.4262" fill="#D9D9D9"/>
    </mask>
    <g mask="url(#mask7_0_1)">
      <path d="M735.992 240.873L737.652 235.171C737.382 234.589 737.18 233.993 737.045 233.383C736.911 232.773 736.843 232.149 736.843 231.511C736.843 230.334 737.067 229.227 737.514 228.192C737.96 227.156 738.567 226.255 739.333 225.489C740.099 224.723 740.999 224.117 742.035 223.67C743.07 223.223 744.177 223 745.354 223C746.532 223 747.638 223.223 748.673 223.67C749.709 224.117 750.61 224.723 751.376 225.489C752.142 226.255 752.748 227.156 753.195 228.192C753.642 229.227 753.865 230.334 753.865 231.511C753.865 232.688 753.642 233.795 753.195 234.83C752.748 235.866 752.142 236.766 751.376 237.532C750.61 238.298 749.709 238.905 748.673 239.352C747.638 239.798 746.532 240.022 745.354 240.022C744.716 240.022 744.092 239.954 743.482 239.82C742.872 239.685 742.276 239.483 741.694 239.213L735.992 240.873ZM738.503 238.362L741.226 237.554C741.425 237.497 741.627 237.476 741.833 237.49C742.038 237.504 742.234 237.554 742.418 237.639C742.872 237.866 743.347 238.036 743.843 238.149C744.34 238.263 744.844 238.32 745.354 238.32C747.255 238.32 748.865 237.66 750.184 236.341C751.503 235.022 752.163 233.412 752.163 231.511C752.163 229.61 751.503 228 750.184 226.681C748.865 225.362 747.255 224.702 745.354 224.702C743.453 224.702 741.843 225.362 740.524 226.681C739.205 228 738.545 229.61 738.545 231.511C738.545 232.022 738.602 232.525 738.716 233.022C738.829 233.518 738.999 233.993 739.226 234.447C739.326 234.632 739.379 234.827 739.386 235.032C739.393 235.238 739.368 235.44 739.311 235.639L738.503 238.362Z" fill="white"/>
    </g>
    <path d="M774.002 234.953C774.002 236.807 772.485 238.642 769.658 238.642C767.037 238.642 765.183 237.181 765.145 235.028H766.962C767.074 236.114 767.842 237.2 769.658 237.2C771.306 237.2 772.279 236.264 772.279 235.028C772.279 231.508 765.22 233.755 765.22 228.905C765.22 226.752 766.962 225.292 769.546 225.292C772.036 225.292 773.665 226.659 773.871 228.643H771.998C771.886 227.763 771.062 226.771 769.471 226.752C768.066 226.715 766.962 227.445 766.962 228.849C766.962 232.22 774.002 230.123 774.002 234.953ZM776.509 238.511V225.554H778.344L783.138 236.264L787.931 225.554H789.747V238.511H788.043V228.849L783.737 238.511H782.538L778.213 228.831V238.511H776.509ZM801.119 234.953C801.119 236.807 799.602 238.642 796.775 238.642C794.153 238.642 792.3 237.181 792.262 235.028H794.078C794.191 236.114 794.959 237.2 796.775 237.2C798.422 237.2 799.396 236.264 799.396 235.028C799.396 231.508 792.337 233.755 792.337 228.905C792.337 226.752 794.078 225.292 796.662 225.292C799.153 225.292 800.782 226.659 800.988 228.643H799.115C799.003 227.763 798.179 226.771 796.588 226.752C795.183 226.715 794.078 227.445 794.078 228.849C794.078 232.22 801.119 230.123 801.119 234.953Z" fill="white"/>
  </g>
  <g filter="url(#filter3_d_0_1)">
    <rect x="1324" y="148" width="130.217" height="45.0218" rx="12" fill="url(#paint17_linear_0_1)"/>
    <rect x="1324.52" y="148.522" width="129.173" height="43.9783" rx="11.4782" stroke="url(#paint18_linear_0_1)" stroke-width="1.04351"/>
    <mask id="mask8_0_1" style="mask-type:alpha" maskUnits="userSpaceOnUse" x="1355" y="160" width="21" height="21">
      <rect x="1355.14" y="160.298" width="20.4262" height="20.4262" fill="#D9D9D9"/>
    </mask>
    <g mask="url(#mask8_0_1)">
      <path d="M1355.99 179.873L1357.65 174.171C1357.38 173.589 1357.18 172.993 1357.05 172.383C1356.91 171.773 1356.84 171.149 1356.84 170.511C1356.84 169.334 1357.07 168.227 1357.51 167.192C1357.96 166.156 1358.57 165.255 1359.33 164.489C1360.1 163.723 1361 163.117 1362.03 162.67C1363.07 162.223 1364.18 162 1365.35 162C1366.53 162 1367.64 162.223 1368.67 162.67C1369.71 163.117 1370.61 163.723 1371.38 164.489C1372.14 165.255 1372.75 166.156 1373.19 167.192C1373.64 168.227 1373.87 169.334 1373.87 170.511C1373.87 171.688 1373.64 172.795 1373.19 173.83C1372.75 174.866 1372.14 175.766 1371.38 176.532C1370.61 177.298 1369.71 177.905 1368.67 178.352C1367.64 178.798 1366.53 179.022 1365.35 179.022C1364.72 179.022 1364.09 178.954 1363.48 178.82C1362.87 178.685 1362.28 178.483 1361.69 178.213L1355.99 179.873ZM1358.5 177.362L1361.23 176.554C1361.42 176.497 1361.63 176.476 1361.83 176.49C1362.04 176.504 1362.23 176.554 1362.42 176.639C1362.87 176.866 1363.35 177.036 1363.84 177.149C1364.34 177.263 1364.84 177.32 1365.35 177.32C1367.25 177.32 1368.86 176.66 1370.18 175.341C1371.5 174.022 1372.16 172.412 1372.16 170.511C1372.16 168.61 1371.5 167 1370.18 165.681C1368.86 164.362 1367.25 163.702 1365.35 163.702C1363.45 163.702 1361.84 164.362 1360.52 165.681C1359.21 167 1358.55 168.61 1358.55 170.511C1358.55 171.022 1358.6 171.525 1358.72 172.022C1358.83 172.518 1359 172.993 1359.23 173.447C1359.33 173.632 1359.38 173.827 1359.39 174.032C1359.39 174.238 1359.37 174.44 1359.31 174.639L1358.5 177.362Z" fill="white"/>
    </g>
    <path d="M1394 173.953C1394 175.807 1392.49 177.642 1389.66 177.642C1387.04 177.642 1385.18 176.181 1385.15 174.028H1386.96C1387.07 175.114 1387.84 176.2 1389.66 176.2C1391.31 176.2 1392.28 175.264 1392.28 174.028C1392.28 170.508 1385.22 172.755 1385.22 167.905C1385.22 165.752 1386.96 164.292 1389.55 164.292C1392.04 164.292 1393.66 165.659 1393.87 167.643H1392C1391.89 166.763 1391.06 165.771 1389.47 165.752C1388.07 165.715 1386.96 166.445 1386.96 167.849C1386.96 171.22 1394 169.123 1394 173.953ZM1396.51 177.511V164.554H1398.34L1403.14 175.264L1407.93 164.554H1409.75V177.511H1408.04V167.849L1403.74 177.511H1402.54L1398.21 167.831V177.511H1396.51ZM1421.12 173.953C1421.12 175.807 1419.6 177.642 1416.77 177.642C1414.15 177.642 1412.3 176.181 1412.26 174.028H1414.08C1414.19 175.114 1414.96 176.2 1416.77 176.2C1418.42 176.2 1419.4 175.264 1419.4 174.028C1419.4 170.508 1412.34 172.755 1412.34 167.905C1412.34 165.752 1414.08 164.292 1416.66 164.292C1419.15 164.292 1420.78 165.659 1420.99 167.643H1419.12C1419 166.763 1418.18 165.771 1416.59 165.752C1415.18 165.715 1414.08 166.445 1414.08 167.849C1414.08 171.22 1421.12 169.123 1421.12 173.953Z" fill="white"/>
  </g>
  <g filter="url(#filter4_d_0_1)">
    <rect x="1064" y="87" width="78" height="78" rx="9.36" fill="url(#paint19_linear_0_1)"/>
    <rect x="1064.41" y="87.407" width="77.1861" height="77.1861" rx="8.95303" stroke="url(#paint20_linear_0_1)" stroke-width="0.813938"/>
    <path d="M1107.67 133.006C1101.54 133.006 1096.55 128.016 1096.55 121.884C1096.55 120.33 1097.81 119.066 1099.36 119.066C1099.52 119.066 1099.68 119.079 1099.83 119.106C1100.16 119.161 1100.48 119.274 1100.77 119.443C1100.81 119.469 1100.84 119.509 1100.85 119.556L1101.5 123.64C1101.5 123.687 1101.49 123.736 1101.46 123.771C1101.1 124.167 1100.64 124.452 1100.13 124.595L1099.89 124.664L1099.98 124.9C1100.82 127.029 1102.52 128.729 1104.65 129.568L1104.89 129.662L1104.95 129.417C1105.1 128.909 1105.38 128.452 1105.78 128.095C1105.81 128.068 1105.84 128.054 1105.88 128.054C1105.89 128.054 1105.9 128.054 1105.91 128.056L1109.99 128.704C1110.04 128.712 1110.08 128.739 1110.11 128.781C1110.28 129.072 1110.39 129.389 1110.44 129.721C1110.47 129.869 1110.48 130.025 1110.48 130.188C1110.48 131.74 1109.22 133.004 1107.67 133.006Z" fill="#FDFDFD"/>
    <path d="M1118.54 124.654C1118.21 120.917 1116.5 117.451 1113.72 114.895C1110.93 112.323 1107.3 110.906 1103.51 110.906C1095.19 110.906 1088.42 117.678 1088.42 126C1088.42 128.793 1089.19 131.514 1090.65 133.884L1087.4 141.085L1097.81 139.976C1099.62 140.717 1101.54 141.093 1103.51 141.093C1104.03 141.093 1104.56 141.067 1105.09 141.011C1105.56 140.961 1106.04 140.887 1106.5 140.793C1113.47 139.385 1118.56 133.199 1118.6 126.081V126C1118.6 125.547 1118.58 125.094 1118.54 124.655L1118.54 124.654ZM1098.21 136.815L1092.45 137.429L1094.17 133.617L1093.83 133.156C1093.8 133.122 1093.78 133.088 1093.75 133.05C1092.25 130.987 1091.47 128.55 1091.47 126.002C1091.47 119.358 1096.87 113.953 1103.51 113.953C1109.73 113.953 1115.01 118.809 1115.52 125.008C1115.54 125.34 1115.56 125.674 1115.56 126.003C1115.56 126.097 1115.56 126.19 1115.55 126.289C1115.43 131.846 1111.55 136.566 1106.12 137.768C1105.7 137.861 1105.28 137.931 1104.85 137.976C1104.41 138.027 1103.96 138.052 1103.51 138.052C1101.92 138.052 1100.37 137.743 1098.9 137.132C1098.74 137.067 1098.58 136.996 1098.43 136.924L1098.21 136.818L1098.21 136.815Z" fill="#FDFDFD"/>
  </g>
  <g filter="url(#filter5_d_0_1)">
    <rect x="1259" y="242" width="130.217" height="45.0218" rx="12" fill="url(#paint21_linear_0_1)"/>
    <rect x="1259.52" y="242.522" width="129.173" height="43.9783" rx="11.4782" stroke="url(#paint22_linear_0_1)" stroke-width="1.04351"/>
    <mask id="mask9_0_1" style="mask-type:alpha" maskUnits="userSpaceOnUse" x="1290" y="254" width="22" height="21">
      <rect x="1290.64" y="254.298" width="20.4262" height="20.4262" fill="#D9D9D9"/>
    </mask>
    <g mask="url(#mask9_0_1)">
      <path d="M1296.6 269.617V259.404H1298.3V269.617H1296.6ZM1300 273.022V256H1301.71V273.022H1300ZM1293.2 266.213V262.809H1294.9V266.213H1293.2ZM1303.41 269.617V259.404H1305.11V269.617H1303.41ZM1306.81 266.213V262.809H1308.51V266.213H1306.81Z" fill="#1C1B1F"/>
    </g>
    <path d="M1325.91 269.713L1330.01 258.46H1331.8L1326.88 271.511H1324.91L1319.99 258.46H1321.81L1325.91 269.713ZM1346.14 264.976C1346.14 268.89 1343.28 271.642 1339.59 271.642C1335.92 271.642 1333.04 268.89 1333.04 264.976C1333.04 261.063 1335.92 258.31 1339.59 258.31C1343.28 258.31 1346.14 261.063 1346.14 264.976ZM1334.78 264.976C1334.78 268.159 1336.84 270.163 1339.59 270.163C1342.34 270.163 1344.4 268.159 1344.4 264.976C1344.4 261.774 1342.34 259.79 1339.59 259.79C1336.84 259.79 1334.78 261.774 1334.78 264.976ZM1356.16 258.46V259.808L1349.83 270.032H1356.2V271.511H1347.81V270.163L1354.14 259.939H1347.89V258.46H1356.16Z" fill="#1D1C1E"/>
  </g>
  <g filter="url(#filter6_d_0_1)">
    <rect x="817" y="126" width="130.217" height="45.0218" rx="12" fill="url(#paint23_linear_0_1)"/>
    <rect x="817.522" y="126.522" width="129.173" height="43.9783" rx="11.4782" stroke="url(#paint24_linear_0_1)" stroke-width="1.04351"/>
    <mask id="mask10_0_1" style="mask-type:alpha" maskUnits="userSpaceOnUse" x="848" y="138" width="22" height="21">
      <rect x="848.641" y="138.298" width="20.4262" height="20.4262" fill="#D9D9D9"/>
    </mask>
    <g mask="url(#mask10_0_1)">
      <path d="M854.6 153.617V143.404H856.302V153.617H854.6ZM858.004 157.022V140H859.706V157.022H858.004ZM851.195 150.213V146.809H852.897V150.213H851.195ZM861.408 153.617V143.404H863.111V153.617H861.408ZM864.813 150.213V146.809H866.515V150.213H864.813Z" fill="#1C1B1F"/>
    </g>
    <path d="M883.907 153.713L888.007 142.46H889.805L884.88 155.511H882.914L877.99 142.46H879.806L883.907 153.713ZM904.143 148.976C904.143 152.89 901.279 155.642 897.59 155.642C893.92 155.642 891.037 152.89 891.037 148.976C891.037 145.063 893.92 142.31 897.59 142.31C901.279 142.31 904.143 145.063 904.143 148.976ZM892.778 148.976C892.778 152.159 894.838 154.163 897.59 154.163C900.342 154.163 902.402 152.159 902.402 148.976C902.402 145.774 900.342 143.79 897.59 143.79C894.838 143.79 892.778 145.774 892.778 148.976ZM914.163 142.46V143.808L907.834 154.032H914.201V155.511H905.812V154.163L912.141 143.939H905.887V142.46H914.163Z" fill="#1D1C1E"/>
  </g>
  <defs>
    <filter id="filter0_f_0_1" x="0.760132" y="0.126953" width="2600.56" height="2600.56" filterUnits="userSpaceOnUse" color-interpolation-filters="sRGB">
      <feFlood flood-opacity="0" result="BackgroundImageFix"/>
      <feBlend mode="normal" in="SourceGraphic" in2="BackgroundImageFix" result="shape"/>
      <feGaussianBlur stdDeviation="213.161" result="effect1_foregroundBlur_0_1"/>
    </filter>
    <filter id="filter1_f_0_1" x="147.843" y="108.839" width="1705.29" height="1705.29" filterUnits="userSpaceOnUse" color-interpolation-filters="sRGB">
      <feFlood flood-opacity="0" result="BackgroundImageFix"/>
      <feBlend mode="normal" in="SourceGraphic" in2="BackgroundImageFix" result="shape"/>
      <feGaussianBlur stdDeviation="106.58" result="effect1_foregroundBlur_0_1"/>
    </filter>
    <filter id="filter2_d_0_1" x="695.489" y="200.489" width="147.241" height="62.0437" filterUnits="userSpaceOnUse" color-interpolation-filters="sRGB">
      <feFlood flood-opacity="0" result="BackgroundImageFix"/>
      <feColorMatrix in="SourceAlpha" type="matrix" values="0 0 0 0 0 0 0 0 0 0 0 0 0 0 0 0 0 0 127 0" result="hardAlpha"/>
      <feOffset/>
      <feGaussianBlur stdDeviation="4.25545"/>
      <feComposite in2="hardAlpha" operator="out"/>
      <feColorMatrix type="matrix" values="0 0 0 0 0.505882 0 0 0 0 0.027451 0 0 0 0 0.890196 0 0 0 0.3 0"/>
      <feBlend mode="normal" in2="BackgroundImageFix" result="effect1_dropShadow_0_1"/>
      <feBlend mode="normal" in="SourceGraphic" in2="effect1_dropShadow_0_1" result="shape"/>
    </filter>
    <filter id="filter3_d_0_1" x="1315.49" y="139.489" width="147.241" height="62.0437" filterUnits="userSpaceOnUse" color-interpolation-filters="sRGB">
      <feFlood flood-opacity="0" result="BackgroundImageFix"/>
      <feColorMatrix in="SourceAlpha" type="matrix" values="0 0 0 0 0 0 0 0 0 0 0 0 0 0 0 0 0 0 127 0" result="hardAlpha"/>
      <feOffset/>
      <feGaussianBlur stdDeviation="4.25545"/>
      <feComposite in2="hardAlpha" operator="out"/>
      <feColorMatrix type="matrix" values="0 0 0 0 0.505882 0 0 0 0 0.027451 0 0 0 0 0.890196 0 0 0 0.3 0"/>
      <feBlend mode="normal" in2="BackgroundImageFix" result="effect1_dropShadow_0_1"/>
      <feBlend mode="normal" in="SourceGraphic" in2="effect1_dropShadow_0_1" result="shape"/>
    </filter>
    <filter id="filter4_d_0_1" x="1057.36" y="80.3615" width="91.277" height="91.277" filterUnits="userSpaceOnUse" color-interpolation-filters="sRGB">
      <feFlood flood-opacity="0" result="BackgroundImageFix"/>
      <feColorMatrix in="SourceAlpha" type="matrix" values="0 0 0 0 0 0 0 0 0 0 0 0 0 0 0 0 0 0 127 0" result="hardAlpha"/>
      <feOffset/>
      <feGaussianBlur stdDeviation="3.31925"/>
      <feComposite in2="hardAlpha" operator="out"/>
      <feColorMatrix type="matrix" values="0 0 0 0 0.505882 0 0 0 0 0.027451 0 0 0 0 0.890196 0 0 0 0.3 0"/>
      <feBlend mode="normal" in2="BackgroundImageFix" result="effect1_dropShadow_0_1"/>
      <feBlend mode="normal" in="SourceGraphic" in2="effect1_dropShadow_0_1" result="shape"/>
    </filter>
    <filter id="filter5_d_0_1" x="1250.49" y="233.489" width="147.241" height="62.0437" filterUnits="userSpaceOnUse" color-interpolation-filters="sRGB">
      <feFlood flood-opacity="0" result="BackgroundImageFix"/>
      <feColorMatrix in="SourceAlpha" type="matrix" values="0 0 0 0 0 0 0 0 0 0 0 0 0 0 0 0 0 0 127 0" result="hardAlpha"/>
      <feOffset/>
      <feGaussianBlur stdDeviation="4.25545"/>
      <feComposite in2="hardAlpha" operator="out"/>
      <feColorMatrix type="matrix" values="0 0 0 0 0.505882 0 0 0 0 0.027451 0 0 0 0 0.890196 0 0 0 0.3 0"/>
      <feBlend mode="normal" in2="BackgroundImageFix" result="effect1_dropShadow_0_1"/>
      <feBlend mode="normal" in="SourceGraphic" in2="effect1_dropShadow_0_1" result="shape"/>
    </filter>
    <filter id="filter6_d_0_1" x="808.489" y="117.489" width="147.241" height="62.0437" filterUnits="userSpaceOnUse" color-interpolation-filters="sRGB">
      <feFlood flood-opacity="0" result="BackgroundImageFix"/>
      <feColorMatrix in="SourceAlpha" type="matrix" values="0 0 0 0 0 0 0 0 0 0 0 0 0 0 0 0 0 0 127 0" result="hardAlpha"/>
      <feOffset/>
      <feGaussianBlur stdDeviation="4.25545"/>
      <feComposite in2="hardAlpha" operator="out"/>
      <feColorMatrix type="matrix" values="0 0 0 0 0.505882 0 0 0 0 0.027451 0 0 0 0 0.890196 0 0 0 0.3 0"/>
      <feBlend mode="normal" in2="BackgroundImageFix" result="effect1_dropShadow_0_1"/>
      <feBlend mode="normal" in="SourceGraphic" in2="effect1_dropShadow_0_1" result="shape"/>
    </filter>
    <linearGradient id="paint0_linear_0_1" x1="1097" y1="122" x2="1097" y2="773" gradientUnits="userSpaceOnUse">
      <stop stop-color="#8107E3"/>
      <stop offset="1" stop-color="#47047D" stop-opacity="0.2"/>
    </linearGradient>
    <linearGradient id="paint1_linear_0_1" x1="40" y1="40" x2="0" y2="40" gradientUnits="userSpaceOnUse">
      <stop stop-color="#999999"/>
      <stop offset="0.475" stop-color="white"/>
      <stop offset="1" stop-color="#999999"/>
    </linearGradient>
    <linearGradient id="paint2_linear_0_1" x1="1473.34" y1="268.667" x2="1491.68" y2="268.667" gradientUnits="userSpaceOnUse">
      <stop stop-color="#999999"/>
      <stop offset="0.475" stop-color="white"/>
      <stop offset="1" stop-color="#999999"/>
    </linearGradient>
    <linearGradient id="paint3_linear_0_1" x1="1249" y1="160" x2="1209" y2="160" gradientUnits="userSpaceOnUse">
      <stop stop-color="#999999"/>
      <stop offset="0.475" stop-color="white"/>
      <stop offset="1" stop-color="#999999"/>
    </linearGradient>
    <linearGradient id="paint4_linear_0_1" x1="1240.66" y1="151.667" x2="1217.32" y2="151.667" gradientUnits="userSpaceOnUse">
      <stop stop-color="#999999"/>
      <stop offset="0.475" stop-color="white"/>
      <stop offset="1" stop-color="#999999"/>
    </linearGradient>
    <linearGradient id="paint5_linear_0_1" x1="1215" y1="253" x2="1175" y2="253" gradientUnits="userSpaceOnUse">
      <stop stop-color="#999999"/>
      <stop offset="0.475" stop-color="white"/>
      <stop offset="1" stop-color="#999999"/>
    </linearGradient>
    <linearGradient id="paint6_linear_0_1" x1="1211.66" y1="248" x2="1178.32" y2="248" gradientUnits="userSpaceOnUse">
      <stop stop-color="#999999"/>
      <stop offset="0.475" stop-color="white"/>
      <stop offset="1" stop-color="#999999"/>
    </linearGradient>
    <linearGradient id="paint7_linear_0_1" x1="647" y1="371" x2="607" y2="371" gradientUnits="userSpaceOnUse">
      <stop stop-color="#999999"/>
      <stop offset="0.475" stop-color="white"/>
      <stop offset="1" stop-color="#999999"/>
    </linearGradient>
    <linearGradient id="paint8_linear_0_1" x1="642" y1="366" x2="612" y2="366" gradientUnits="userSpaceOnUse">
      <stop stop-color="#999999"/>
      <stop offset="0.475" stop-color="white"/>
      <stop offset="1" stop-color="#999999"/>
    </linearGradient>
    <linearGradient id="paint9_linear_0_1" x1="1064" y1="245" x2="1024" y2="245" gradientUnits="userSpaceOnUse">
      <stop stop-color="#999999"/>
      <stop offset="0.475" stop-color="white"/>
      <stop offset="1" stop-color="#999999"/>
    </linearGradient>
    <linearGradient id="paint10_linear_0_1" x1="1060.66" y1="241.667" x2="1027.32" y2="241.667" gradientUnits="userSpaceOnUse">
      <stop stop-color="#999999"/>
      <stop offset="0.475" stop-color="white"/>
      <stop offset="1" stop-color="#999999"/>
    </linearGradient>
    <linearGradient id="paint11_linear_0_1" x1="913" y1="301.284" x2="873" y2="301.284" gradientUnits="userSpaceOnUse">
      <stop stop-color="#999999"/>
      <stop offset="0.475" stop-color="white"/>
      <stop offset="1" stop-color="#999999"/>
    </linearGradient>
    <linearGradient id="paint12_linear_0_1" x1="922.502" y1="258.927" x2="900.11" y2="281.319" gradientUnits="userSpaceOnUse">
      <stop stop-color="#999999"/>
      <stop offset="0.475" stop-color="white"/>
      <stop offset="1" stop-color="#999999"/>
    </linearGradient>
    <linearGradient id="paint13_linear_0_1" x1="873.96" y1="0" x2="873.96" y2="1747.92" gradientUnits="userSpaceOnUse">
      <stop stop-color="#8107E3"/>
      <stop offset="0.515" stop-color="#8107E3"/>
      <stop offset="1" stop-color="#75E307"/>
    </linearGradient>
    <linearGradient id="paint14_linear_0_1" x1="639.483" y1="0" x2="639.483" y2="1278.97" gradientUnits="userSpaceOnUse">
      <stop stop-color="#8107E3"/>
      <stop offset="1" stop-color="#8107E3"/>
      <stop offset="1" stop-color="#75E307"/>
    </linearGradient>
    <linearGradient id="paint15_linear_0_1" x1="740.399" y1="213.179" x2="750.64" y2="268.287" gradientUnits="userSpaceOnUse">
      <stop stop-color="#B058F6"/>
      <stop offset="1" stop-color="#8107E3"/>
    </linearGradient>
    <linearGradient id="paint16_linear_0_1" x1="716.681" y1="209" x2="827.402" y2="228.153" gradientUnits="userSpaceOnUse">
      <stop stop-color="#D29BFF"/>
      <stop offset="1" stop-color="#8107E3"/>
    </linearGradient>
    <linearGradient id="paint17_linear_0_1" x1="1360.4" y1="152.179" x2="1370.64" y2="207.287" gradientUnits="userSpaceOnUse">
      <stop stop-color="#B058F6"/>
      <stop offset="1" stop-color="#8107E3"/>
    </linearGradient>
    <linearGradient id="paint18_linear_0_1" x1="1336.68" y1="148" x2="1447.4" y2="167.153" gradientUnits="userSpaceOnUse">
      <stop stop-color="#D29BFF"/>
      <stop offset="1" stop-color="#8107E3"/>
    </linearGradient>
    <linearGradient id="paint19_linear_0_1" x1="1085.8" y1="94.2403" x2="1126.99" y2="170.871" gradientUnits="userSpaceOnUse">
      <stop stop-color="#B058F6"/>
      <stop offset="1" stop-color="#8107E3"/>
    </linearGradient>
    <linearGradient id="paint20_linear_0_1" x1="1071.6" y1="87" x2="1139.66" y2="91.0707" gradientUnits="userSpaceOnUse">
      <stop stop-color="#D29BFF"/>
      <stop offset="1" stop-color="#8107E3"/>
    </linearGradient>
    <linearGradient id="paint21_linear_0_1" x1="1295.4" y1="246.179" x2="1305.64" y2="301.287" gradientUnits="userSpaceOnUse">
      <stop stop-color="white"/>
      <stop offset="1" stop-color="#D6D6D6"/>
    </linearGradient>
    <linearGradient id="paint22_linear_0_1" x1="1271.68" y1="242" x2="1382.4" y2="261.153" gradientUnits="userSpaceOnUse">
      <stop stop-color="white"/>
      <stop offset="1" stop-color="#C2C2C2"/>
    </linearGradient>
    <linearGradient id="paint23_linear_0_1" x1="853.399" y1="130.179" x2="863.64" y2="185.287" gradientUnits="userSpaceOnUse">
      <stop stop-color="white"/>
      <stop offset="1" stop-color="#D6D6D6"/>
    </linearGradient>
    <linearGradient id="paint24_linear_0_1" x1="829.681" y1="126" x2="940.402" y2="145.153" gradientUnits="userSpaceOnUse">
      <stop stop-color="white"/>
      <stop offset="1" stop-color="#C2C2C2"/>
    </linearGradient>
  </defs>
</svg>
  