<svg width="1279" height="145" viewBox="0 0 1279 145" fill="none"
  xmlns="http://www.w3.org/2000/svg">
  <path opacity="0.1" fill-rule="evenodd" clip-rule="evenodd" d="M976.768 98.2288C994.098 43.9164 961.384 -0.294389 904.345 0.00147638C836.38 0.677741 820.404 51.947 831.942 96.6438C840.565 130.013 874.547 148.843 914.785 144.046C944.202 140.538 967.174 128.28 976.768 98.2288ZM946.044 71.7364C946.05 71.8583 946.056 71.9685 946.062 72.0659H946.083C945.851 106.217 925.689 122.891 893.715 116.932C889.974 116.234 886.234 114.882 882.831 113.17C865.46 104.379 857.936 78.2579 865.354 53.1305C870.891 34.3641 887.755 24.3893 910.135 26.6294C931.417 28.7427 943.463 41.8876 945.618 65.3455C945.829 67.6666 945.952 70.0024 946.024 71.3667L946.044 71.7364ZM434.245 5.5176C466.769 0.255423 497.835 -3.18929 528.626 6.44747C566.877 18.43 577.803 49.8129 571.971 88.2965C567.068 120.63 544.793 138.699 505.845 142.038C488.816 143.5 471.577 142.891 454.39 142.282C450.461 142.143 446.535 142.005 442.614 141.891C439.761 141.806 434.626 137.685 434.604 135.403C434.202 99.8852 434.22 64.3532 434.238 28.1713V28.1667C434.241 20.647 434.245 13.0992 434.245 5.5176ZM467.741 29.377V92.7134C467.741 109.648 476.159 117.785 492.996 117.122C528.753 115.749 545.427 93.5799 537.65 58.2451C534.776 45.1424 527.675 35.6325 515.101 31.2579C499.948 25.9746 484.31 25.1293 467.741 29.3559V29.377ZM680.836 103.195C687.853 81.2167 694.869 59.2381 702.118 36.4987L702.139 36.5199C702.608 37.1188 702.981 37.5535 703.273 37.8927L703.276 37.896L703.276 37.8963C703.744 38.4405 704 38.7387 704.104 39.077C706.536 46.8641 708.957 54.6535 711.378 62.4422C716.361 78.4755 721.343 94.5058 726.421 110.507C727.368 113.499 728.119 116.809 728.874 120.139C730.797 128.617 732.748 137.218 738.044 140.982C742.987 144.499 750.77 143.86 758.7 143.21C762.873 142.868 767.086 142.523 770.948 142.778C777.648 143.201 779.994 140.305 781.748 134.451C786.979 116.875 792.39 99.359 797.8 81.8428C800.893 71.832 803.985 61.8212 807.044 51.7992C810.345 40.9711 813.58 30.1336 816.923 18.9333L816.929 18.9126C818.615 13.2658 820.328 7.52668 822.091 1.65C819.208 1.65 816.492 1.69725 813.893 1.74245C808.341 1.83905 803.325 1.92631 798.358 1.52321C791.638 0.973742 789.187 3.99578 787.538 9.99763C784.32 21.7556 780.777 33.4174 777.236 45.0737C776.08 48.879 774.925 52.6836 773.78 56.4908C770.077 68.8313 766.354 81.1529 762.385 94.2904L762.376 94.3213L762.358 94.3803L762.216 94.8502L761.999 95.5694L761.872 95.989L761.813 96.1843C760.028 102.094 758.191 108.175 756.282 114.502C752.905 103.497 749.649 92.8598 746.465 82.458C740.801 63.9541 735.366 46.1962 729.887 28.447C721.222 0.382023 721.159 0.191826 691.762 1.96702C688.487 2.17835 683.732 5.8978 682.612 9.02552C678.175 21.4475 674.255 34.0529 670.335 46.6559L670.334 46.6601C668.932 51.1659 667.531 55.6713 666.107 60.168C660.908 76.5674 655.709 92.9668 649.538 112.388C648.686 109.777 647.975 107.642 647.362 105.801L647.354 105.778L647.352 105.773C646.357 102.784 645.618 100.568 644.952 98.3346C642.633 90.4702 640.323 82.6012 638.013 74.7313C631.713 53.269 625.41 31.8001 618.916 10.3992C617.944 7.18691 615.133 2.36852 612.808 2.13606C605.891 1.44741 598.897 1.54557 591.303 1.65214C588.41 1.69273 585.43 1.73455 582.334 1.73455C586.604 15.5901 590.824 29.2797 595.009 42.8572L595.119 43.2151L595.174 43.3935C605.492 76.8676 615.601 109.664 625.742 142.588H643.43C659.943 142.602 670.721 134.839 675.764 119.299C676.727 116.317 677.657 113.335 678.587 110.353C679.331 107.967 680.076 105.581 680.836 103.195ZM395.375 142.666C398.221 142.617 401.12 142.566 404.089 142.566V2.34704H372.284V95.1854C371.091 93.6931 370.126 92.5016 369.311 91.4954C367.945 89.8085 367 88.642 366.113 87.4507C360.513 79.9537 354.921 72.4532 349.33 64.9538L349.329 64.9516L349.328 64.9503L349.327 64.949L349.326 64.9481L349.326 64.9477L349.326 64.9473C335.36 46.2139 321.399 27.4867 307.32 8.83497C305.164 5.96085 301.931 2.26252 298.93 1.98778C291.984 1.36599 284.962 1.47338 277.754 1.58361C274.918 1.62698 272.054 1.6708 269.153 1.6708V141.827H300.769V48.6289C306.083 55.756 311.3 62.7624 316.446 69.6736C333.258 92.2521 349.313 113.815 365.542 135.254C367.846 138.297 371.523 141.89 374.862 142.228C381.54 142.906 388.293 142.789 395.375 142.666ZM1090.28 87.0706C1102.96 103.674 1115.45 119.993 1129.04 137.743L1132.71 142.545C1129.21 142.545 1125.85 142.577 1122.6 142.607C1114.22 142.686 1106.53 142.758 1098.88 142.271C1096.11 142.102 1093.02 138.953 1091.02 136.417C1089.45 134.441 1087.86 132.471 1086.28 130.5L1086.28 130.498L1086.28 130.497C1079.04 121.483 1071.79 112.448 1065.55 102.773C1058.87 92.4384 1050.55 89.1416 1038.27 91.9946V141.827H1005.57V5.70752C1031.72 0.128342 1057.82 -2.21742 1084.04 3.25609C1105.81 7.79974 1117.28 19.888 1119.82 39.3728C1122.42 59.4071 1114.18 73.968 1094.35 84.4501C1093.58 84.8637 1092.86 85.3492 1091.93 85.9654C1091.44 86.2937 1090.89 86.6592 1090.25 87.0706H1090.28ZM1038.33 66.5079C1040.59 66.6255 1042.74 66.7614 1044.83 66.8929C1049.49 67.1866 1053.81 67.4589 1058.13 67.4589C1062.68 67.4589 1067.28 67.0574 1071.72 66.1275C1079.75 64.4157 1086.26 60.2102 1088.08 51.6724C1089.83 43.4726 1089.16 35.3786 1082.12 29.4824C1073.92 22.593 1048.43 21.6209 1038.31 27.5382V66.529L1038.33 66.5079ZM243.332 26.5447V1.62856H243.311C233.965 1.62856 224.707 1.64553 215.514 1.66238C190.675 1.70789 166.305 1.75255 141.935 1.45949C133.989 1.35383 131.77 3.78413 131.833 11.6457C132.076 39.2192 132.058 66.783 132.041 94.3502V94.3509V94.3516C132.033 107.625 132.024 120.9 132.045 134.176C132.045 135.984 132.312 137.802 132.569 139.548L132.569 139.548L132.569 139.549L132.569 139.55C132.687 140.355 132.803 141.144 132.89 141.911H244.516V117.396H165.964V83.1818H233.062V57.6951H166.09V26.5447H243.332ZM1279 142.567H1278.96C1263.46 121.465 1249.01 101.788 1234.7 82.3122L1225.64 69.9739C1241.78 47.3824 1257.55 25.3193 1274.46 1.65004C1271.08 1.65004 1267.96 1.6858 1265.02 1.71949C1258.64 1.79259 1253.11 1.85595 1247.62 1.52324C1241.28 1.14284 1237.39 3.36183 1233.82 8.68741C1229.97 14.394 1225.87 19.9362 1221.76 25.4782L1221.76 25.4823C1216.44 32.6637 1211.12 39.8447 1206.37 47.3824C1200.55 56.6176 1193.41 57.2728 1183.35 55.0327V2.24176H1150.55V141.911H1184.09V85.8661C1194.16 84.9503 1201.98 88.24 1207.53 95.7353C1210.6 99.8798 1213.66 104.037 1216.72 108.195L1216.72 108.196C1223.88 117.925 1231.05 127.656 1238.4 137.22C1240.28 139.65 1243.69 142.165 1246.54 142.334C1253.71 142.771 1260.91 142.703 1268.89 142.628C1272.11 142.598 1275.45 142.567 1278.96 142.567L1278.98 142.588L1279 142.567ZM89.6158 28.2058C93.782 28.5109 98.0354 28.8223 102.412 29.1231L102.391 29.102C102.391 27.4618 102.356 25.8041 102.321 24.136C102.24 20.302 102.158 16.4129 102.496 12.5546C103.088 5.77085 100.341 2.85446 93.6839 2.70652C88.1986 2.58923 82.6953 2.26244 77.1939 1.93576C65.8448 1.26184 54.5036 0.588382 43.3444 1.75553C14.8991 4.75646 0.0635448 20.1837 0.000145049 42.9865C-0.0421215 62.4502 9.15084 74.4962 30.1362 80.8151C37.1153 82.9113 44.2436 84.4857 51.3748 86.0607C56.2497 87.1374 61.126 88.2143 65.957 89.4585C72.6985 91.1915 77.0731 95.2279 76.7561 102.963C76.4391 111.036 71.4939 115.431 64.4566 116.615C56.5739 117.946 48.353 118.538 40.3858 117.946C31.9323 117.33 23.5298 116.081 14.9234 114.803C11.1369 114.24 7.31089 113.672 3.42373 113.149V137.959C30.3052 145.419 57.1445 148.315 83.9414 138.065C95.1632 133.775 103.828 126.188 107.885 114.354C115.155 93.1146 106.977 74.4962 84.8924 65.9584C76.5681 62.7315 67.7519 60.7683 58.9324 58.8044C54.6983 57.8616 50.4635 56.9186 46.282 55.8355C38.991 53.9547 32.7144 50.51 33.0314 41.8876C33.3273 33.6456 39.0333 29.5246 46.599 28.003L46.6895 27.9845C51.0996 27.0814 55.6745 26.1446 60.1243 26.3335C69.7811 26.7534 79.438 27.4605 89.6158 28.2058Z" fill="url(#paint0_linear_87_141)"/>
  <defs>
    <linearGradient id="paint0_linear_87_141" x1="0" y1="72.393" x2="1279" y2="72.393" gradientUnits="userSpaceOnUse">
      <stop stop-color="#181818"/>
      <stop offset="0.53" stop-color="white"/>
      <stop offset="1" stop-color="#181818"/>
    </linearGradient>
  </defs>
</svg>
  