<svg width="695" height="441" viewBox="0 0 695 441" fill="none"
  xmlns="http://www.w3.org/2000/svg">
  <path fill-rule="evenodd" clip-rule="evenodd" d="M452.54 444.418C576.503 444.418 676.836 344.336 676.724 220.849C676.612 97.5573 576.81 -2.83201 454.19 -2.99979C330.059 -3.16757 229.39 96.5786 229.307 219.87C229.223 343.917 329.165 444.418 452.54 444.418ZM609.835 220.681C609.835 307.983 540.094 377.585 452.708 377.501C365.489 377.417 296.056 307.536 296.223 220.038C296.419 132.959 366.44 63.6655 454.05 63.9171C540.458 64.1688 609.835 133.994 609.835 220.681ZM49.3974 271.044C77.333 271.519 100.347 249.148 100.655 221.297H100.627C100.934 193.361 78.4515 170.543 50.5438 170.403C23.2234 170.291 0.628827 192.187 0.0136281 219.451C-0.629535 247.359 21.5736 270.569 49.3974 271.044ZM905.996 220.542C906.052 248.477 883.402 271.128 855.494 271.016C827.559 270.904 805.076 248.086 805.355 220.178C805.635 192.858 827.866 170.627 855.159 170.403C883.094 170.179 905.941 192.69 905.996 220.57V220.542ZM123.077 220.904C123.105 243.638 141.981 262.486 164.855 262.626H164.883C187.617 262.766 206.604 244.058 206.94 221.184C207.248 198.449 188.68 179.294 165.834 178.763C142.568 178.232 123.021 197.498 123.077 220.904ZM740.754 262.627C717.88 262.403 699.089 243.472 699.144 220.737C699.2 197.332 718.831 178.149 742.068 178.764C764.915 179.379 783.399 198.646 782.979 221.352C782.56 244.227 763.489 262.85 740.754 262.627ZM452.992 315.785C505.34 315.841 548.041 273.168 548.096 220.736C548.152 168.389 505.48 125.688 453.048 125.632C400.7 125.576 358 168.249 357.944 220.681C357.888 273.028 400.56 315.729 452.992 315.785Z" fill="#8107E3"/>
</svg>
  