<svg width="655" height="177" viewBox="0 0 655 177" fill="none"
  xmlns="http://www.w3.org/2000/svg">
  <path d="M54.7898 138.131C43.5682 138.131 33.9091 135.858 25.8125 131.312C17.7633 126.72 11.5606 120.233 7.20455 111.852C2.84848 103.424 0.670455 93.4574 0.670455 81.9517C0.670455 70.7301 2.84848 60.8816 7.20455 52.4062C11.5606 43.9309 17.6922 37.3258 25.5994 32.5909C33.554 27.8561 42.8816 25.4886 53.5824 25.4886C60.7794 25.4886 67.4792 26.6487 73.6818 28.9688C79.9318 31.2415 85.3769 34.6742 90.017 39.267C94.7045 43.8598 98.3504 49.6364 100.955 56.5966C103.559 63.5095 104.861 71.6061 104.861 80.8864V89.196H12.7443V70.446H76.3807C76.3807 66.09 75.4337 62.2311 73.5398 58.8693C71.6458 55.5076 69.018 52.8797 65.6562 50.9858C62.3419 49.0445 58.483 48.0739 54.0795 48.0739C49.4867 48.0739 45.4148 49.1392 41.8636 51.2699C38.3598 53.3532 35.6136 56.1705 33.625 59.7216C31.6364 63.2254 30.6184 67.1316 30.571 71.4403V89.267C30.571 94.6648 31.5653 99.3286 33.554 103.259C35.59 107.188 38.4545 110.219 42.1477 112.349C45.8409 114.48 50.2206 115.545 55.2869 115.545C58.6487 115.545 61.7263 115.072 64.5199 114.125C67.3134 113.178 69.7045 111.758 71.6932 109.864C73.6818 107.97 75.197 105.65 76.2386 102.903L104.222 104.75C102.801 111.473 99.8892 117.345 95.4858 122.364C91.1297 127.335 85.4953 131.218 78.5824 134.011C71.7169 136.758 63.786 138.131 54.7898 138.131ZM182.631 26.9091V49.6364H116.935V26.9091H182.631ZM131.849 0.772725H162.105V102.477C162.105 105.271 162.531 107.449 163.384 109.011C164.236 110.527 165.42 111.592 166.935 112.207C168.497 112.823 170.296 113.131 172.332 113.131C173.753 113.131 175.173 113.012 176.594 112.776C178.014 112.491 179.103 112.278 179.861 112.136L184.619 134.651C183.104 135.124 180.973 135.669 178.227 136.284C175.481 136.947 172.143 137.349 168.213 137.491C160.921 137.776 154.529 136.805 149.037 134.58C143.592 132.354 139.354 128.898 136.324 124.21C133.294 119.523 131.802 113.604 131.849 106.455V0.772725ZM233.447 138.06C226.487 138.06 220.285 136.852 214.839 134.438C209.394 131.975 205.086 128.353 201.913 123.571C198.788 118.741 197.226 112.728 197.226 105.531C197.226 99.4706 198.339 94.3807 200.564 90.2614C202.789 86.142 205.82 82.8277 209.655 80.3182C213.49 77.8087 217.846 75.9148 222.723 74.6364C227.647 73.358 232.808 72.4583 238.206 71.9375C244.551 71.2746 249.664 70.6591 253.547 70.0909C257.429 69.4754 260.247 68.5758 261.999 67.392C263.75 66.2083 264.626 64.4564 264.626 62.1364V61.7102C264.626 57.2121 263.206 53.732 260.365 51.2699C257.571 48.8078 253.594 47.5767 248.433 47.5767C242.988 47.5767 238.656 48.7841 235.436 51.1989C232.216 53.5663 230.086 56.5492 229.044 60.1477L201.061 57.875C202.482 51.2462 205.275 45.517 209.442 40.6875C213.608 35.8106 218.982 32.0701 225.564 29.4659C232.193 26.8144 239.863 25.4886 248.575 25.4886C254.636 25.4886 260.436 26.1989 265.976 27.6193C271.563 29.0398 276.511 31.2415 280.82 34.2244C285.176 37.2074 288.608 41.0426 291.118 45.7301C293.627 50.3703 294.882 55.9337 294.882 62.4205V136H266.189V120.872H265.337C263.585 124.281 261.241 127.288 258.305 129.892C255.37 132.449 251.842 134.461 247.723 135.929C243.604 137.349 238.845 138.06 233.447 138.06ZM242.112 117.179C246.563 117.179 250.493 116.303 253.902 114.551C257.311 112.752 259.986 110.337 261.928 107.307C263.869 104.277 264.839 100.844 264.839 97.0085V85.4318C263.893 86.0473 262.59 86.6155 260.933 87.1364C259.323 87.6098 257.5 88.0597 255.464 88.4858C253.429 88.8646 251.393 89.2197 249.357 89.5511C247.321 89.8352 245.474 90.0956 243.817 90.3324C240.266 90.8532 237.164 91.6818 234.513 92.8182C231.861 93.9545 229.802 95.4934 228.334 97.4347C226.866 99.3286 226.132 101.696 226.132 104.537C226.132 108.656 227.624 111.805 230.607 113.983C233.637 116.114 237.472 117.179 242.112 117.179ZM318.355 176.909V26.9091H348.185V45.233H349.534C350.86 42.2973 352.777 39.3144 355.287 36.2841C357.844 33.2064 361.158 30.6496 365.23 28.6136C369.349 26.5303 374.463 25.4886 380.571 25.4886C388.526 25.4886 395.865 27.572 402.588 31.7386C409.312 35.858 414.686 42.0843 418.71 50.4176C422.735 58.7036 424.747 69.0966 424.747 81.5966C424.747 93.7652 422.782 104.04 418.852 112.42C414.97 120.754 409.667 127.075 402.943 131.384C396.267 135.645 388.786 137.776 380.5 137.776C374.629 137.776 369.634 136.805 365.514 134.864C361.442 132.922 358.104 130.484 355.5 127.548C352.896 124.565 350.907 121.559 349.534 118.528H348.611V176.909H318.355ZM347.972 81.4545C347.972 87.9413 348.871 93.5994 350.67 98.429C352.47 103.259 355.074 107.023 358.483 109.722C361.892 112.373 366.035 113.699 370.912 113.699C375.836 113.699 380.003 112.349 383.412 109.651C386.821 106.904 389.402 103.116 391.153 98.2869C392.953 93.41 393.852 87.7992 393.852 81.4545C393.852 75.1572 392.976 69.6174 391.224 64.8352C389.473 60.053 386.892 56.3125 383.483 53.6136C380.074 50.9148 375.884 49.5653 370.912 49.5653C365.988 49.5653 361.821 50.8674 358.412 53.4716C355.05 56.0758 352.47 59.7689 350.67 64.5511C348.871 69.3333 347.972 74.9678 347.972 81.4545ZM476.026 138.06C469.065 138.06 462.863 136.852 457.418 134.438C451.973 131.975 447.664 128.353 444.491 123.571C441.366 118.741 439.804 112.728 439.804 105.531C439.804 99.4706 440.917 94.3807 443.142 90.2614C445.367 86.142 448.398 82.8277 452.233 80.3182C456.068 77.8087 460.424 75.9148 465.301 74.6364C470.225 73.358 475.386 72.4583 480.784 71.9375C487.129 71.2746 492.242 70.6591 496.125 70.0909C500.008 69.4754 502.825 68.5758 504.577 67.392C506.329 66.2083 507.205 64.4564 507.205 62.1364V61.7102C507.205 57.2121 505.784 53.732 502.943 51.2699C500.15 48.8078 496.172 47.5767 491.011 47.5767C485.566 47.5767 481.234 48.7841 478.014 51.1989C474.795 53.5663 472.664 56.5492 471.622 60.1477L443.639 57.875C445.06 51.2462 447.853 45.517 452.02 40.6875C456.187 35.8106 461.561 32.0701 468.142 29.4659C474.771 26.8144 482.441 25.4886 491.153 25.4886C497.214 25.4886 503.014 26.1989 508.554 27.6193C514.141 29.0398 519.089 31.2415 523.398 34.2244C527.754 37.2074 531.187 41.0426 533.696 45.7301C536.205 50.3703 537.46 55.9337 537.46 62.4205V136H508.767V120.872H507.915C506.163 124.281 503.819 127.288 500.884 129.892C497.948 132.449 494.42 134.461 490.301 135.929C486.182 137.349 481.423 138.06 476.026 138.06ZM484.69 117.179C489.141 117.179 493.071 116.303 496.48 114.551C499.889 112.752 502.564 110.337 504.506 107.307C506.447 104.277 507.418 100.844 507.418 97.0085V85.4318C506.471 86.0473 505.169 86.6155 503.511 87.1364C501.902 87.6098 500.079 88.0597 498.043 88.4858C496.007 88.8646 493.971 89.2197 491.935 89.5511C489.899 89.8352 488.052 90.0956 486.395 90.3324C482.844 90.8532 479.742 91.6818 477.091 92.8182C474.439 93.9545 472.38 95.4934 470.912 97.4347C469.444 99.3286 468.71 101.696 468.71 104.537C468.71 108.656 470.202 111.805 473.185 113.983C476.215 116.114 480.05 117.179 484.69 117.179ZM651.7 58.017L624.001 59.7216C623.528 57.3542 622.51 55.2235 620.947 53.3295C619.385 51.3883 617.325 49.8494 614.768 48.7131C612.259 47.5294 609.252 46.9375 605.749 46.9375C601.061 46.9375 597.107 47.9318 593.888 49.9205C590.668 51.8617 589.058 54.4659 589.058 57.733C589.058 60.3371 590.1 62.5388 592.183 64.3381C594.267 66.1373 597.841 67.5814 602.908 68.6705L622.652 72.6477C633.258 74.8258 641.165 78.3295 646.374 83.1591C651.582 87.9886 654.186 94.3333 654.186 102.193C654.186 109.343 652.079 115.616 647.865 121.014C643.698 126.412 637.969 130.626 630.678 133.656C623.433 136.639 615.076 138.131 605.607 138.131C591.165 138.131 579.66 135.124 571.089 129.111C562.567 123.05 557.571 114.812 556.104 104.395L585.862 102.832C586.762 107.236 588.94 110.598 592.396 112.918C595.853 115.19 600.28 116.327 605.678 116.327C610.981 116.327 615.242 115.309 618.462 113.273C621.729 111.189 623.386 108.514 623.433 105.247C623.386 102.501 622.226 100.252 619.953 98.5C617.68 96.7008 614.177 95.3277 609.442 94.3807L590.55 90.6165C579.896 88.4858 571.965 84.7926 566.757 79.5369C561.596 74.2812 559.016 67.5814 559.016 59.4375C559.016 52.4299 560.91 46.393 564.697 41.3267C568.533 36.2604 573.907 32.3542 580.82 29.608C587.78 26.8617 595.924 25.4886 605.251 25.4886C619.03 25.4886 629.873 28.4006 637.78 34.2244C645.734 40.0483 650.375 47.9792 651.7 58.017Z" fill="url(#paint0_linear_87_53)" fill-opacity="0.5"/>
  <defs>
    <linearGradient id="paint0_linear_87_53" x1="662" y1="184" x2="-7" y2="184" gradientUnits="userSpaceOnUse">
      <stop stop-color="#999999"/>
      <stop offset="0.475" stop-color="white"/>
      <stop offset="1" stop-color="#999999"/>
    </linearGradient>
  </defs>
</svg>
  