<svg width="1274" height="195" viewBox="0 0 1274 195" fill="none"
  xmlns="http://www.w3.org/2000/svg">
  <path d="M44.2727 155.776C35.9867 155.776 28.482 153.645 21.7585 149.384C15.0824 145.075 9.77936 138.754 5.84943 130.42C1.96686 122.04 0.0255687 111.765 0.0255687 99.5966C0.0255687 87.0966 2.03788 76.7036 6.0625 68.4176C10.0871 60.0843 15.4375 53.858 22.1136 49.7386C28.8371 45.572 36.1998 43.4886 44.2017 43.4886C50.3097 43.4886 55.3996 44.5303 59.4716 46.6136C63.5909 48.6496 66.9053 51.2064 69.4148 54.2841C71.9716 57.3144 73.9129 60.2973 75.2386 63.233H76.1619V8.54545H106.347V154H76.517V136.528H75.2386C73.8182 139.559 71.8059 142.565 69.2017 145.548C66.6449 148.484 63.3068 150.922 59.1875 152.864C55.1155 154.805 50.1439 155.776 44.2727 155.776ZM53.8608 131.699C58.7377 131.699 62.857 130.373 66.2188 127.722C69.6278 125.023 72.232 121.259 74.0312 116.429C75.8778 111.599 76.8011 105.941 76.8011 99.4545C76.8011 92.9678 75.9015 87.3333 74.1023 82.5511C72.303 77.7689 69.6989 74.0758 66.2898 71.4716C62.8807 68.8674 58.7377 67.5653 53.8608 67.5653C48.8892 67.5653 44.6989 68.9148 41.2898 71.6136C37.8807 74.3125 35.3002 78.053 33.5483 82.8352C31.7964 87.6174 30.9205 93.1572 30.9205 99.4545C30.9205 105.799 31.7964 111.41 33.5483 116.287C35.3475 121.116 37.928 124.904 41.2898 127.651C44.6989 130.349 48.8892 131.699 53.8608 131.699ZM180.938 156.131C169.717 156.131 160.058 153.858 151.961 149.312C143.912 144.72 137.709 138.233 133.353 129.852C128.997 121.424 126.819 111.457 126.819 99.9517C126.819 88.7301 128.997 78.8816 133.353 70.4062C137.709 61.9309 143.841 55.3258 151.748 50.5909C159.702 45.8561 169.03 43.4886 179.731 43.4886C186.928 43.4886 193.628 44.6487 199.83 46.9688C206.08 49.2415 211.525 52.6742 216.165 57.267C220.853 61.8598 224.499 67.6364 227.103 74.5966C229.707 81.5095 231.009 89.6061 231.009 98.8864V107.196H138.893V88.446H202.529C202.529 84.09 201.582 80.2311 199.688 76.8693C197.794 73.5076 195.166 70.8797 191.805 68.9858C188.49 67.0445 184.631 66.0739 180.228 66.0739C175.635 66.0739 171.563 67.1392 168.012 69.2699C164.508 71.3532 161.762 74.1705 159.773 77.7216C157.785 81.2254 156.767 85.1316 156.719 89.4403V107.267C156.719 112.665 157.714 117.329 159.702 121.259C161.738 125.188 164.603 128.219 168.296 130.349C171.989 132.48 176.369 133.545 181.435 133.545C184.797 133.545 187.875 133.072 190.668 132.125C193.462 131.178 195.853 129.758 197.842 127.864C199.83 125.97 201.345 123.65 202.387 120.903L230.37 122.75C228.95 129.473 226.038 135.345 221.634 140.364C217.278 145.335 211.644 149.218 204.731 152.011C197.865 154.758 189.934 156.131 180.938 156.131ZM250.754 194.909V44.9091H280.583V63.233H281.933C283.258 60.2973 285.176 57.3144 287.685 54.2841C290.242 51.2064 293.557 48.6496 297.629 46.6136C301.748 44.5303 306.862 43.4886 312.969 43.4886C320.924 43.4886 328.263 45.572 334.987 49.7386C341.71 53.858 347.084 60.0843 351.109 68.4176C355.133 76.7036 357.146 87.0966 357.146 99.5966C357.146 111.765 355.181 122.04 351.251 130.42C347.368 138.754 342.065 145.075 335.342 149.384C328.665 153.645 321.184 155.776 312.898 155.776C307.027 155.776 302.032 154.805 297.913 152.864C293.841 150.922 290.503 148.484 287.898 145.548C285.294 142.565 283.306 139.559 281.933 136.528H281.009V194.909H250.754ZM280.37 99.4545C280.37 105.941 281.27 111.599 283.069 116.429C284.868 121.259 287.472 125.023 290.881 127.722C294.29 130.373 298.433 131.699 303.31 131.699C308.235 131.699 312.401 130.349 315.81 127.651C319.219 124.904 321.8 121.116 323.552 116.287C325.351 111.41 326.251 105.799 326.251 99.4545C326.251 93.1572 325.375 87.6174 323.623 82.8352C321.871 78.053 319.29 74.3125 315.881 71.6136C312.472 68.9148 308.282 67.5653 303.31 67.5653C298.386 67.5653 294.219 68.8674 290.81 71.4716C287.449 74.0758 284.868 77.7689 283.069 82.5511C281.27 87.3333 280.37 92.9678 280.37 99.4545ZM426.606 156.131C415.574 156.131 406.033 153.787 397.984 149.099C389.982 144.365 383.803 137.783 379.447 129.355C375.091 120.88 372.913 111.055 372.913 99.8807C372.913 88.6117 375.091 78.7633 379.447 70.3352C383.803 61.8598 389.982 55.2784 397.984 50.5909C406.033 45.8561 415.574 43.4886 426.606 43.4886C437.638 43.4886 447.155 45.8561 455.157 50.5909C463.206 55.2784 469.409 61.8598 473.765 70.3352C478.121 78.7633 480.299 88.6117 480.299 99.8807C480.299 111.055 478.121 120.88 473.765 129.355C469.409 137.783 463.206 144.365 455.157 149.099C447.155 153.787 437.638 156.131 426.606 156.131ZM426.748 132.693C431.767 132.693 435.957 131.273 439.319 128.432C442.681 125.544 445.214 121.614 446.918 116.642C448.67 111.67 449.546 106.012 449.546 99.6676C449.546 93.3229 448.67 87.6648 446.918 82.6932C445.214 77.7216 442.681 73.7917 439.319 70.9034C435.957 68.0151 431.767 66.571 426.748 66.571C421.682 66.571 417.42 68.0151 413.964 70.9034C410.555 73.7917 407.974 77.7216 406.222 82.6932C404.518 87.6648 403.665 93.3229 403.665 99.6676C403.665 106.012 404.518 111.67 406.222 116.642C407.974 121.614 410.555 125.544 413.964 128.432C417.42 131.273 421.682 132.693 426.748 132.693ZM499.972 154V44.9091H530.228V154H499.972ZM515.171 30.8466C510.673 30.8466 506.814 29.3551 503.594 26.3722C500.422 23.3419 498.836 19.7197 498.836 15.5057C498.836 11.339 500.422 7.7642 503.594 4.78125C506.814 1.75094 510.673 0.235788 515.171 0.235788C519.669 0.235788 523.504 1.75094 526.677 4.78125C529.897 7.7642 531.506 11.339 531.506 15.5057C531.506 19.7197 529.897 23.3419 526.677 26.3722C523.504 29.3551 519.669 30.8466 515.171 30.8466ZM554.464 154V44.9091H583.3V64.1562H584.578C586.851 57.7642 590.639 52.7216 595.942 49.0284C601.245 45.3352 607.589 43.4886 614.976 43.4886C622.457 43.4886 628.825 45.3589 634.081 49.0994C639.337 52.7926 642.84 57.8116 644.592 64.1562H645.729C647.954 57.9062 651.979 52.911 657.803 49.1705C663.674 45.3826 670.61 43.4886 678.612 43.4886C688.792 43.4886 697.054 46.732 703.399 53.2188C709.791 59.6581 712.987 68.7964 712.987 80.6335V154H682.803V86.5994C682.803 80.5388 681.193 75.9934 677.973 72.9631C674.753 69.9328 670.729 68.4176 665.899 68.4176C660.407 68.4176 656.122 70.1695 653.044 73.6733C649.966 77.1297 648.428 81.6989 648.428 87.3807V154H619.095V85.9602C619.095 80.6098 617.556 76.3485 614.479 73.1761C611.448 70.0038 607.447 68.4176 602.476 68.4176C599.114 68.4176 596.084 69.2699 593.385 70.9744C590.733 72.6316 588.626 74.9754 587.064 78.0057C585.501 80.9886 584.72 84.4924 584.72 88.517V154H554.464ZM786.602 156.131C775.381 156.131 765.722 153.858 757.625 149.312C749.576 144.72 743.373 138.233 739.017 129.852C734.661 121.424 732.483 111.457 732.483 99.9517C732.483 88.7301 734.661 78.8816 739.017 70.4062C743.373 61.9309 749.505 55.3258 757.412 50.5909C765.366 45.8561 774.694 43.4886 785.395 43.4886C792.592 43.4886 799.292 44.6487 805.494 46.9688C811.744 49.2415 817.189 52.6742 821.83 57.267C826.517 61.8598 830.163 67.6364 832.767 74.5966C835.371 81.5095 836.673 89.6061 836.673 98.8864V107.196H744.557V88.446H808.193C808.193 84.09 807.246 80.2311 805.352 76.8693C803.458 73.5076 800.83 70.8797 797.469 68.9858C794.154 67.0445 790.295 66.0739 785.892 66.0739C781.299 66.0739 777.227 67.1392 773.676 69.2699C770.172 71.3532 767.426 74.1705 765.438 77.7216C763.449 81.2254 762.431 85.1316 762.384 89.4403V107.267C762.384 112.665 763.378 117.329 765.366 121.259C767.402 125.188 770.267 128.219 773.96 130.349C777.653 132.48 782.033 133.545 787.099 133.545C790.461 133.545 793.539 133.072 796.332 132.125C799.126 131.178 801.517 129.758 803.506 127.864C805.494 125.97 807.009 123.65 808.051 120.903L836.034 122.75C834.614 129.473 831.702 135.345 827.298 140.364C822.942 145.335 817.308 149.218 810.395 152.011C803.529 154.758 795.598 156.131 786.602 156.131ZM886.673 90.9318V154H856.418V44.9091H885.253V64.1562H886.531C888.946 57.8116 892.994 52.7926 898.676 49.0994C904.358 45.3589 911.247 43.4886 919.344 43.4886C926.92 43.4886 933.525 45.1458 939.159 48.4602C944.794 51.7746 949.173 56.5095 952.298 62.6648C955.423 68.7727 956.986 76.0644 956.986 84.5398V154H926.73V89.9375C926.777 83.2614 925.073 78.053 921.616 74.3125C918.16 70.5246 913.402 68.6307 907.341 68.6307C903.269 68.6307 899.67 69.5066 896.545 71.2585C893.468 73.0104 891.053 75.5672 889.301 78.929C887.597 82.2434 886.721 86.2443 886.673 90.9318ZM1038.86 44.9091V67.6364H973.161V44.9091H1038.86ZM988.076 18.7727H1018.33V120.477C1018.33 123.271 1018.76 125.449 1019.61 127.011C1020.46 128.527 1021.65 129.592 1023.16 130.207C1024.72 130.823 1026.52 131.131 1028.56 131.131C1029.98 131.131 1031.4 131.012 1032.82 130.776C1034.24 130.491 1035.33 130.278 1036.09 130.136L1040.85 152.651C1039.33 153.124 1037.2 153.669 1034.45 154.284C1031.71 154.947 1028.37 155.349 1024.44 155.491C1017.15 155.776 1010.76 154.805 1005.26 152.58C999.818 150.354 995.581 146.898 992.55 142.21C989.52 137.523 988.029 131.604 988.076 124.455V18.7727ZM1106.68 156.131C1095.65 156.131 1086.11 153.787 1078.06 149.099C1070.06 144.365 1063.88 137.783 1059.52 129.355C1055.17 120.88 1052.99 111.055 1052.99 99.8807C1052.99 88.6117 1055.17 78.7633 1059.52 70.3352C1063.88 61.8598 1070.06 55.2784 1078.06 50.5909C1086.11 45.8561 1095.65 43.4886 1106.68 43.4886C1117.72 43.4886 1127.23 45.8561 1135.24 50.5909C1143.28 55.2784 1149.49 61.8598 1153.84 70.3352C1158.2 78.7633 1160.38 88.6117 1160.38 99.8807C1160.38 111.055 1158.2 120.88 1153.84 129.355C1149.49 137.783 1143.28 144.365 1135.24 149.099C1127.23 153.787 1117.72 156.131 1106.68 156.131ZM1106.83 132.693C1111.84 132.693 1116.04 131.273 1119.4 128.432C1122.76 125.544 1125.29 121.614 1127 116.642C1128.75 111.67 1129.62 106.012 1129.62 99.6676C1129.62 93.3229 1128.75 87.6648 1127 82.6932C1125.29 77.7216 1122.76 73.7917 1119.4 70.9034C1116.04 68.0151 1111.84 66.571 1106.83 66.571C1101.76 66.571 1097.5 68.0151 1094.04 70.9034C1090.63 73.7917 1088.05 77.7216 1086.3 82.6932C1084.6 87.6648 1083.74 93.3229 1083.74 99.6676C1083.74 106.012 1084.6 111.67 1086.3 116.642C1088.05 121.614 1090.63 125.544 1094.04 128.432C1097.5 131.273 1101.76 132.693 1106.83 132.693ZM1270.82 76.017L1243.12 77.7216C1242.65 75.3542 1241.63 73.2235 1240.06 71.3295C1238.5 69.3883 1236.44 67.8494 1233.89 66.7131C1231.38 65.5294 1228.37 64.9375 1224.87 64.9375C1220.18 64.9375 1216.22 65.9318 1213 67.9205C1209.79 69.8617 1208.18 72.4659 1208.18 75.733C1208.18 78.3371 1209.22 80.5388 1211.3 82.3381C1213.38 84.1373 1216.96 85.5814 1222.02 86.6705L1241.77 90.6477C1252.38 92.8258 1260.28 96.3295 1265.49 101.159C1270.7 105.989 1273.3 112.333 1273.3 120.193C1273.3 127.343 1271.2 133.616 1266.98 139.014C1262.82 144.412 1257.09 148.626 1249.79 151.656C1242.55 154.639 1234.19 156.131 1224.72 156.131C1210.28 156.131 1198.78 153.124 1190.21 147.111C1181.68 141.05 1176.69 132.812 1175.22 122.395L1204.98 120.832C1205.88 125.236 1208.06 128.598 1211.51 130.918C1214.97 133.19 1219.4 134.327 1224.79 134.327C1230.1 134.327 1234.36 133.309 1237.58 131.273C1240.85 129.189 1242.5 126.514 1242.55 123.247C1242.5 120.501 1241.34 118.252 1239.07 116.5C1236.8 114.701 1233.29 113.328 1228.56 112.381L1209.67 108.616C1199.01 106.486 1191.08 102.793 1185.87 97.5369C1180.71 92.2812 1178.13 85.5814 1178.13 77.4375C1178.13 70.4299 1180.03 64.393 1183.81 59.3267C1187.65 54.2604 1193.02 50.3542 1199.94 47.608C1206.9 44.8617 1215.04 43.4886 1224.37 43.4886C1238.15 43.4886 1248.99 46.4006 1256.9 52.2244C1264.85 58.0483 1269.49 65.9792 1270.82 76.017Z" fill="url(#paint0_linear_87_52)" fill-opacity="0.5"/>
  <defs>
    <linearGradient id="paint0_linear_87_52" x1="1281" y1="202" x2="-8" y2="202" gradientUnits="userSpaceOnUse">
      <stop stop-color="#999999"/>
      <stop offset="0.475" stop-color="white"/>
      <stop offset="1" stop-color="#999999"/>
    </linearGradient>
  </defs>
</svg>
  