<svg width="86" height="83" viewBox="0 0 86 83" fill="none"
  xmlns="http://www.w3.org/2000/svg">
  <g filter="url(#filter0_d_87_289)">
    <rect x="11.9219" y="11.4277" width="61.8299" height="59.6071" rx="22.6071" fill="url(#paint0_linear_87_289)"/>
    <rect x="12.6148" y="12.1207" width="60.444" height="58.2212" rx="21.9142" stroke="url(#paint1_linear_87_289)" stroke-width="1.38591"/>
    <path d="M36.3058 46.3244C36.8695 45.8768 37.1264 45.6696 37.0767 45.7027C38.7014 44.3599 39.9779 43.2574 40.9063 42.3953C41.8513 41.5332 42.6471 40.6297 43.2936 39.6847C43.9402 38.7397 44.2635 37.8196 44.2635 36.9244C44.2635 36.2447 44.106 35.7142 43.791 35.3328C43.476 34.9515 43.0035 34.7609 42.3735 34.7609C41.7435 34.7609 41.2462 35.0013 40.8815 35.4821C40.5333 35.9463 40.3592 36.6094 40.3592 37.4715H36.256C36.2892 36.0623 36.5876 34.8852 37.1513 33.9402C37.7315 32.9953 38.4859 32.299 39.4143 31.8514C40.3592 31.4037 41.4037 31.1799 42.5476 31.1799C44.5205 31.1799 46.0042 31.6856 46.999 32.6969C48.0102 33.7081 48.5159 35.0261 48.5159 36.6508C48.5159 38.4247 47.9108 40.0743 46.7005 41.5995C45.4903 43.1082 43.9485 44.5837 42.0751 46.026H48.7894V49.4826H36.3058V46.3244Z" fill="#840CE5"/>
  </g>
  <defs>
    <filter id="filter0_d_87_289" x="0.618315" y="0.124174" width="84.4352" height="82.2143" filterUnits="userSpaceOnUse" color-interpolation-filters="sRGB">
      <feFlood flood-opacity="0" result="BackgroundImageFix"/>
      <feColorMatrix in="SourceAlpha" type="matrix" values="0 0 0 0 0 0 0 0 0 0 0 0 0 0 0 0 0 0 127 0" result="hardAlpha"/>
      <feOffset/>
      <feGaussianBlur stdDeviation="5.65178"/>
      <feComposite in2="hardAlpha" operator="out"/>
      <feColorMatrix type="matrix" values="0 0 0 0 0.505882 0 0 0 0 0.027451 0 0 0 0 0.890196 0 0 0 0.3 0"/>
      <feBlend mode="normal" in2="BackgroundImageFix" result="effect1_dropShadow_87_289"/>
      <feBlend mode="normal" in="SourceGraphic" in2="effect1_dropShadow_87_289" result="shape"/>
    </filter>
    <linearGradient id="paint0_linear_87_289" x1="29.2048" y1="16.9608" x2="60.0384" y2="76.4632" gradientUnits="userSpaceOnUse">
      <stop stop-color="white"/>
      <stop offset="1" stop-color="#C1C1C1"/>
    </linearGradient>
    <linearGradient id="paint1_linear_87_289" x1="17.9433" y1="11.4277" x2="71.8815" y2="14.7739" gradientUnits="userSpaceOnUse">
      <stop stop-color="#D29BFF"/>
      <stop offset="1" stop-color="#8107E3"/>
    </linearGradient>
  </defs>
</svg>
  