<svg width="131" height="126" viewBox="0 0 131 126" fill="none"
  xmlns="http://www.w3.org/2000/svg">
  <g filter="url(#filter0_d_0_1)">
    <path d="M35.5 66.2436C35.5 46.503 51.503 30.5 71.2436 30.5C90.9843 30.5 106.987 46.503 106.987 66.2436C106.987 85.9843 90.9843 101.987 71.2436 101.987C51.503 101.987 35.5 85.9843 35.5 66.2436Z" fill="url(#paint0_linear_0_1)"/>
    <path d="M36.113 66.2436C36.113 46.8415 51.8415 31.113 71.2436 31.113C90.6457 31.113 106.374 46.8415 106.374 66.2436C106.374 85.6457 90.6457 101.374 71.2436 101.374C51.8415 101.374 36.113 85.6457 36.113 66.2436Z" stroke="url(#paint1_linear_0_1)" stroke-width="1.22609"/>
  </g>
  <mask id="mask0_0_1" style="mask-type:alpha" maskUnits="userSpaceOnUse" x="55" y="51" width="31" height="31">
    <rect x="55.7617" y="51.5138" width="30.1132" height="30.1132" fill="#D9D9D9"/>
  </mask>
  <g mask="url(#mask0_0_1)">
    <path d="M69.2363 70.0209H72.3969L71.6877 66.0588C72.0817 65.8898 72.3989 65.6249 72.6394 65.2639C72.8799 64.9028 73.0001 64.5018 73.0001 64.061C73.0001 63.4593 72.7866 62.945 72.3596 62.518C71.9326 62.091 71.4183 61.8775 70.8166 61.8775C70.215 61.8775 69.7007 62.091 69.2736 62.518C68.8466 62.945 68.6331 63.4593 68.6331 64.061C68.6331 64.5018 68.7533 64.9028 68.9938 65.2639C69.2343 65.6249 69.5516 65.8898 69.9455 66.0588L69.2363 70.0209ZM70.8166 78.4661C68.1029 77.726 65.8561 76.1286 64.0763 73.674C62.2963 71.2193 61.4062 68.4751 61.4062 65.4412V58.2218L70.8166 54.6989L80.227 58.2218V65.4412C80.227 68.4751 79.337 71.2193 77.557 73.674C75.7771 76.1286 73.5304 77.726 70.8166 78.4661Z" fill="#75E307"/>
  </g>
  <defs>
    <filter id="filter0_d_0_1" x="-0.0564933" y="-5.05649" width="130.34" height="130.339" filterUnits="userSpaceOnUse" color-interpolation-filters="sRGB">
      <feFlood flood-opacity="0" result="BackgroundImageFix"/>
      <feColorMatrix in="SourceAlpha" type="matrix" values="0 0 0 0 0 0 0 0 0 0 0 0 0 0 0 0 0 0 127 0" result="hardAlpha"/>
      <feOffset dx="-6.13043" dy="-6.13043"/>
      <feGaussianBlur stdDeviation="14.713"/>
      <feComposite in2="hardAlpha" operator="out"/>
      <feColorMatrix type="matrix" values="0 0 0 0 0.505882 0 0 0 0 0.027451 0 0 0 0 0.890196 0 0 0 0.7 0"/>
      <feBlend mode="normal" in2="BackgroundImageFix" result="effect1_dropShadow_0_1"/>
      <feBlend mode="normal" in="SourceGraphic" in2="effect1_dropShadow_0_1" result="shape"/>
    </filter>
    <linearGradient id="paint0_linear_0_1" x1="55.4824" y1="37.1358" x2="93.2332" y2="107.368" gradientUnits="userSpaceOnUse">
      <stop stop-color="#B058F6"/>
      <stop offset="1" stop-color="#8107E3"/>
    </linearGradient>
    <linearGradient id="paint1_linear_0_1" x1="42.4619" y1="30.5" x2="104.842" y2="34.2308" gradientUnits="userSpaceOnUse">
      <stop stop-color="#D29BFF"/>
      <stop offset="1" stop-color="#8107E3"/>
    </linearGradient>
  </defs>
</svg>
  