<svg width="131" height="125" viewBox="0 0 131 125" fill="none" xmlns="http://www.w3.org/2000/svg">
  <g filter="url(#filter0_d_0_1)">
  <path d="M35.5 65.7436C35.5 46.003 51.503 30 71.2436 30C90.9843 30 106.987 46.003 106.987 65.7436C106.987 85.4843 90.9843 101.487 71.2436 101.487C51.503 101.487 35.5 85.4843 35.5 65.7436Z" fill="url(#paint0_linear_0_1)"/>
  <path d="M36.113 65.7436C36.113 46.3415 51.8415 30.613 71.2436 30.613C90.6457 30.613 106.374 46.3415 106.374 65.7436C106.374 85.1457 90.6457 100.874 71.2436 100.874C51.8415 100.874 36.113 85.1457 36.113 65.7436Z" stroke="url(#paint1_linear_0_1)" stroke-width="1.22609"/>
  </g>
  <mask id="mask0_0_1" style="mask-type:alpha" maskUnits="userSpaceOnUse" x="55" y="51" width="31" height="31">
  <rect x="55.7617" y="51.0138" width="30.1132" height="30.1132" fill="#D9D9D9"/>
  </mask>
  <g mask="url(#mask0_0_1)">
  <path d="M60.1523 64.8156V55.4053H69.5627V64.8156H60.1523ZM60.1523 76.7355V67.3251H69.5627V76.7355H60.1523ZM72.0721 64.8156V55.4053H81.4825V64.8156H72.0721ZM72.0721 76.7355V67.3251H81.4825V76.7355H72.0721Z" fill="#75E307"/>
  </g>
  <defs>
  <filter id="filter0_d_0_1" x="-0.0564933" y="-5.55649" width="130.34" height="130.339" filterUnits="userSpaceOnUse" color-interpolation-filters="sRGB">
  <feFlood flood-opacity="0" result="BackgroundImageFix"/>
  <feColorMatrix in="SourceAlpha" type="matrix" values="0 0 0 0 0 0 0 0 0 0 0 0 0 0 0 0 0 0 127 0" result="hardAlpha"/>
  <feOffset dx="-6.13043" dy="-6.13043"/>
  <feGaussianBlur stdDeviation="14.713"/>
  <feComposite in2="hardAlpha" operator="out"/>
  <feColorMatrix type="matrix" values="0 0 0 0 0.505882 0 0 0 0 0.027451 0 0 0 0 0.890196 0 0 0 0.7 0"/>
  <feBlend mode="normal" in2="BackgroundImageFix" result="effect1_dropShadow_0_1"/>
  <feBlend mode="normal" in="SourceGraphic" in2="effect1_dropShadow_0_1" result="shape"/>
  </filter>
  <linearGradient id="paint0_linear_0_1" x1="55.4824" y1="36.6358" x2="93.2332" y2="106.868" gradientUnits="userSpaceOnUse">
  <stop stop-color="#B058F6"/>
  <stop offset="1" stop-color="#8107E3"/>
  </linearGradient>
  <linearGradient id="paint1_linear_0_1" x1="42.4619" y1="30" x2="104.842" y2="33.7308" gradientUnits="userSpaceOnUse">
  <stop stop-color="#D29BFF"/>
  <stop offset="1" stop-color="#8107E3"/>
  </linearGradient>
  </defs>
  </svg>
  