<svg width="131" height="126" viewBox="0 0 131 126" fill="none"
  xmlns="http://www.w3.org/2000/svg">
  <g filter="url(#filter0_d_0_1)">
    <path d="M35.5 66.2436C35.5 46.503 51.503 30.5 71.2436 30.5C90.9843 30.5 106.987 46.503 106.987 66.2436C106.987 85.9843 90.9843 101.987 71.2436 101.987C51.503 101.987 35.5 85.9843 35.5 66.2436Z" fill="url(#paint0_linear_0_1)"/>
    <path d="M36.113 66.2436C36.113 46.8415 51.8415 31.113 71.2436 31.113C90.6457 31.113 106.374 46.8415 106.374 66.2436C106.374 85.6457 90.6457 101.374 71.2436 101.374C51.8415 101.374 36.113 85.6457 36.113 66.2436Z" stroke="url(#paint1_linear_0_1)" stroke-width="1.22609"/>
  </g>
  <mask id="mask0_0_1" style="mask-type:alpha" maskUnits="userSpaceOnUse" x="55" y="51" width="31" height="31">
    <rect x="55.7617" y="51.5138" width="30.1132" height="30.1132" fill="#D9D9D9"/>
  </mask>
  <g mask="url(#mask0_0_1)">
    <path d="M72.8539 77.9591L68.4866 68.5585L63.75 75.1724V54.9642L79.5303 67.3665H71.3818L75.7059 76.625L72.8539 77.9591Z" fill="#75E307"/>
  </g>
  <defs>
    <filter id="filter0_d_0_1" x="-0.0564933" y="-5.05649" width="130.34" height="130.339" filterUnits="userSpaceOnUse" color-interpolation-filters="sRGB">
      <feFlood flood-opacity="0" result="BackgroundImageFix"/>
      <feColorMatrix in="SourceAlpha" type="matrix" values="0 0 0 0 0 0 0 0 0 0 0 0 0 0 0 0 0 0 127 0" result="hardAlpha"/>
      <feOffset dx="-6.13043" dy="-6.13043"/>
      <feGaussianBlur stdDeviation="14.713"/>
      <feComposite in2="hardAlpha" operator="out"/>
      <feColorMatrix type="matrix" values="0 0 0 0 0.505882 0 0 0 0 0.027451 0 0 0 0 0.890196 0 0 0 0.7 0"/>
      <feBlend mode="normal" in2="BackgroundImageFix" result="effect1_dropShadow_0_1"/>
      <feBlend mode="normal" in="SourceGraphic" in2="effect1_dropShadow_0_1" result="shape"/>
    </filter>
    <linearGradient id="paint0_linear_0_1" x1="55.4824" y1="37.1358" x2="93.2332" y2="107.368" gradientUnits="userSpaceOnUse">
      <stop stop-color="#B058F6"/>
      <stop offset="1" stop-color="#8107E3"/>
    </linearGradient>
    <linearGradient id="paint1_linear_0_1" x1="42.4619" y1="30.5" x2="104.842" y2="34.2308" gradientUnits="userSpaceOnUse">
      <stop stop-color="#D29BFF"/>
      <stop offset="1" stop-color="#8107E3"/>
    </linearGradient>
  </defs>
</svg>
  