<svg width="30" height="31" viewBox="0 0 30 31" fill="none"
  xmlns="http://www.w3.org/2000/svg">
  <path d="M29.9822 15.2485C29.9822 22.8244 24.3682 29.0876 17.075 30.104C16.3931 30.1986 15.6954 30.248 14.9872 30.248C14.1697 30.248 13.367 30.1828 12.5852 30.0567C5.44549 28.9068 -0.0078125 22.7141 -0.0078125 15.2485C-0.0078125 6.96421 6.70637 0.248047 14.9883 0.248047C23.2701 0.248047 29.9843 6.96421 29.9843 15.2485H29.9822Z" fill="#333333"/>
  <path d="M17.0761 12.2929V15.5606H21.1172L20.4773 19.9624H17.0761V30.1039C16.3942 30.1985 15.6965 30.2479 14.9883 30.2479C14.1708 30.2479 13.3681 30.1827 12.5863 30.0566V19.9624H8.85938V15.5606H12.5863V11.5625C12.5863 9.08201 14.5964 7.07031 17.0772 7.07031V7.07242C17.0845 7.07242 17.0908 7.07031 17.0982 7.07031H21.1183V10.8772H18.4914C17.7108 10.8772 17.0772 11.511 17.0772 12.2919L17.0761 12.2929Z" fill="white"/>
</svg>
  