<svg width="31" height="31" viewBox="0 0 31 31" fill="none"
  xmlns="http://www.w3.org/2000/svg">
  <path d="M16.0141 0.751953H15.9458C7.68284 0.751953 0.984375 7.45239 0.984375 15.7178V15.7861C0.984375 24.0515 7.68284 30.752 15.9458 30.752H16.0141C24.2771 30.752 30.9755 24.0515 30.9755 15.7861V15.7178C30.9755 7.45239 24.2771 0.751953 16.0141 0.751953Z" fill="#333333"/>
  <path d="M20.621 6.85547H11.3409C8.77712 6.85547 6.69141 8.9418 6.69141 11.5063V19.9988C6.69141 22.5633 8.77712 24.6497 11.3409 24.6497H20.621C23.1848 24.6497 25.2705 22.5633 25.2705 19.9988V11.5063C25.2705 8.9418 23.1848 6.85547 20.621 6.85547ZM8.33161 11.5063C8.33161 9.84675 9.6818 8.49615 11.3409 8.49615H20.621C22.2801 8.49615 23.6303 9.84675 23.6303 11.5063V19.9988C23.6303 21.6584 22.2801 23.009 20.621 23.009H11.3409C9.6818 23.009 8.33161 21.6584 8.33161 19.9988V11.5063Z" fill="white"/>
  <path d="M15.9811 20.0775C18.3652 20.0775 20.3059 18.1373 20.3059 15.7514C20.3059 13.3655 18.3663 11.4253 15.9811 11.4253C13.5959 11.4253 11.6562 13.3655 11.6562 15.7514C11.6562 18.1373 13.5959 20.0775 15.9811 20.0775ZM15.9811 13.067C17.4616 13.067 18.6657 14.2715 18.6657 15.7524C18.6657 17.2334 17.4616 18.4379 15.9811 18.4379C14.5006 18.4379 13.2965 17.2334 13.2965 15.7524C13.2965 14.2715 14.5006 13.067 15.9811 13.067Z" fill="white"/>
  <path d="M20.7043 12.1242C21.3463 12.1242 21.8696 11.6018 21.8696 10.9586C21.8696 10.3153 21.3474 9.79297 20.7043 9.79297C20.0613 9.79297 19.5391 10.3153 19.5391 10.9586C19.5391 11.6018 20.0613 12.1242 20.7043 12.1242Z" fill="white"/>
</svg>
  