<svg width="30" height="31" viewBox="0 0 30 31" fill="none"
  xmlns="http://www.w3.org/2000/svg">
  <path d="M15.0297 0.248047H14.9614C6.69848 0.248047 0 6.94848 0 15.2139V15.2822C0 23.5476 6.69848 30.248 14.9614 30.248H15.0297C23.2927 30.248 29.9912 23.5476 29.9912 15.2822V15.2139C29.9912 6.94848 23.2927 0.248047 15.0297 0.248047Z" fill="#333333"/>
  <path d="M7.15405 10.2193C6.75898 9.85245 6.5625 9.3984 6.5625 8.85817C6.5625 8.31793 6.76003 7.84391 7.15405 7.47604C7.54913 7.10922 8.05769 6.92529 8.68077 6.92529C9.30386 6.92529 9.79246 7.10922 10.1865 7.47604C10.5816 7.84285 10.778 8.30427 10.778 8.85817C10.778 9.41207 10.5805 9.85245 10.1865 10.2193C9.79141 10.5861 9.2902 10.77 8.68077 10.77C8.07135 10.77 7.54913 10.5861 7.15405 10.2193ZM10.446 12.3235V23.5696H6.89347V12.3235H10.446Z" fill="#FEFFFC"/>
  <path d="M22.2718 13.4346C23.0461 14.2754 23.4328 15.4295 23.4328 16.8989V23.3712H20.0589V17.355C20.0589 16.614 19.8666 16.038 19.4831 15.6281C19.0996 15.2182 18.5826 15.0122 17.9354 15.0122C17.2881 15.0122 16.7711 15.2172 16.3876 15.6281C16.0041 16.038 15.8118 16.614 15.8118 17.355V23.3712H12.418V12.2921H15.8118V13.7615C16.1554 13.2717 16.6188 12.8849 17.2009 12.6001C17.783 12.3152 18.4376 12.1733 19.1658 12.1733C20.4624 12.1733 21.4984 12.5938 22.2718 13.4335V13.4346Z" fill="#FEFFFC"/>
</svg>
  